<?xml version="1.0" standalone="yes"?><svg version="1.1" xmlns = 'http://www.w3.org/2000/svg'><defs><font id='web' horiz-adv-x="1000">
<font-face font-family="web" descent="-239" cap-height="696" units-per-em="1000" bbox="-175,-236,1036,1196" x-height="522" ascent="761" />
<missing-glyph horiz-adv-x="667" d="M 51 -217 L 616 -217 L 616 740 L 51 740 Z M 117 -152 L 117 675 L 550 675 L 550 -152 Z" /><glyph horiz-adv-x="493" d="" unicode=" " />
<glyph horiz-adv-x="972" d="" unicode=" " />
<glyph horiz-adv-x="493" d="" unicode=" " />
<glyph horiz-adv-x="972" d="" unicode=" " />
<glyph horiz-adv-x="333" d="" unicode=" " />
<glyph horiz-adv-x="254" d="" unicode=" " />
<glyph horiz-adv-x="667" d="" unicode=" " />
<glyph horiz-adv-x="174" d="" unicode=" " />
<glyph horiz-adv-x="110" d="" unicode=" " />
<glyph horiz-adv-x="0" d="" unicode="​" />
<glyph horiz-adv-x="573" d="M 105 203 L 143 203 L 160 696 L 88 696 Z M 368 203 L 407 203 L 423 696 L 352 696 Z M 124 -6 C 157 -6 172 15 172 45 C 172 74 157 97 124 97 C 92 97 77 74 77 45 C 77 15 92 -6 124 -6 Z M 387 -6 C 420 -6 435 15 435 45 C 435 74 420 97 387 97 C 356 97 340 74 340 45 C 340 15 356 -6 387 -6 Z" unicode="‼" />
<glyph horiz-adv-x="573" d="M 86 285 L 487 285 L 487 339 L 86 339 Z" unicode="‐" />
<glyph horiz-adv-x="573" d="M 86 285 L 487 285 L 487 339 L 86 339 Z" unicode="‑" />
<glyph horiz-adv-x="795" d="M 122 285 L 672 285 L 672 339 L 122 339 Z" unicode="–" />
<glyph horiz-adv-x="1025" d="M 122 285 L 902 285 L 902 339 L 122 339 Z" unicode="—" />
<glyph horiz-adv-x="789" d="M 4 285 L 785 285 L 785 339 L 4 339 Z" unicode="―" />
<glyph horiz-adv-x="285" d="M 203 696 L 162 696 C 127 636 99 578 83 472 L 152 472 C 161 572 176 613 203 696 Z" unicode="‘" />
<glyph horiz-adv-x="285" d="M 73 472 L 115 472 C 150 532 179 589 194 696 L 124 696 C 116 596 102 555 73 472 Z" unicode="’" />
<glyph horiz-adv-x="301" d="M 73 -124 L 115 -124 C 150 -64 179 -6 194 101 L 124 101 C 116 0 102 -41 73 -124 Z" unicode="‚" />
<glyph horiz-adv-x="408" d="M 213 472 C 182 562 174 580 164 696 L 92 696 C 110 574 134 539 173 472 Z" unicode="‛" />
<glyph horiz-adv-x="452" d="M 200 696 L 159 696 C 120 629 97 593 79 472 L 149 472 C 161 586 169 606 200 696 Z M 368 696 L 327 696 C 289 629 265 593 248 472 L 318 472 C 328 586 337 606 368 696 Z" unicode="“" />
<glyph horiz-adv-x="452" d="M 245 472 L 287 472 C 325 539 349 574 366 696 L 296 696 C 285 580 276 562 245 472 Z M 77 472 L 118 472 C 157 539 180 574 198 696 L 127 696 C 117 580 109 562 77 472 Z" unicode="”" />
<glyph horiz-adv-x="471" d="M 242 -117 L 284 -117 C 322 -50 346 -14 363 108 L 293 108 C 282 -8 273 -26 242 -117 Z M 74 -117 L 115 -117 C 153 -50 177 -14 195 108 L 124 108 C 114 -8 106 -26 74 -117 Z" unicode="„" />
<glyph horiz-adv-x="274" d="" unicode=" " />
<glyph horiz-adv-x="335" d="M 148 203 L 187 203 L 203 696 L 132 696 Z M 168 -6 C 200 -6 215 15 215 45 C 215 74 200 97 168 97 C 136 97 121 74 121 45 C 121 15 136 -6 168 -6 Z" unicode="!" />
<glyph horiz-adv-x="375" d="M 251 474 L 289 474 L 304 696 L 235 696 Z M 86 474 L 124 474 L 139 696 L 70 696 Z" unicode="&#x22;" />
<glyph horiz-adv-x="746" d="M 449 234 L 289 234 L 298 463 L 459 463 Z M 438 0 L 488 0 L 496 184 L 654 184 L 654 234 L 499 234 L 508 463 L 654 463 L 654 512 L 511 512 L 519 696 L 471 696 L 461 512 L 301 512 L 309 696 L 259 696 L 251 512 L 91 512 L 91 463 L 249 463 L 239 234 L 91 234 L 91 184 L 236 184 L 228 0 L 276 0 L 286 184 L 447 184 Z" unicode="#" />
<glyph horiz-adv-x="586" d="M 139 501 C 139 570 189 605 272 608 L 272 386 C 174 419 139 445 139 501 Z M 451 196 C 451 130 397 87 311 84 L 311 321 C 410 289 451 259 451 196 Z M 317 -52 L 317 40 C 435 49 501 111 501 200 C 501 288 446 333 311 374 L 311 608 C 364 605 419 587 460 561 C 458 561 480 607 480 607 C 441 632 379 653 317 656 L 317 742 L 266 742 L 266 656 C 149 647 89 590 89 498 C 89 413 138 373 272 333 L 272 84 C 211 88 150 111 105 143 L 85 100 C 128 67 195 44 266 39 L 266 -52 Z" unicode="$" />
<glyph horiz-adv-x="869" d="M 221 338 C 304 338 361 389 361 527 C 361 654 305 705 221 705 C 136 705 79 654 79 524 C 79 389 135 338 221 338 Z M 210 0 L 266 0 L 665 696 L 610 696 Z M 221 383 C 165 383 128 418 128 524 C 128 624 165 661 221 661 C 275 661 311 624 311 525 C 311 418 275 383 221 383 Z M 649 -11 C 733 -11 791 40 791 176 C 791 305 734 356 649 356 C 566 356 509 305 509 173 C 509 40 565 -11 649 -11 Z M 649 34 C 593 34 558 68 558 173 C 558 274 595 311 649 311 C 705 311 741 274 741 173 C 741 68 705 34 649 34 Z" unicode="%" />
<glyph horiz-adv-x="674" d="M 221 527 C 221 598 260 657 328 657 C 379 657 419 630 419 569 C 419 493 337 439 247 403 C 230 445 221 487 221 527 Z M 270 40 C 174 40 117 86 117 182 C 117 258 159 309 221 344 C 266 261 337 180 425 113 C 379 64 326 40 270 40 Z M 628 -1 L 644 47 C 591 68 541 94 495 123 C 536 180 570 253 597 341 L 549 355 C 523 269 492 201 456 151 C 372 213 306 288 265 365 C 367 411 471 470 471 575 C 471 664 405 706 328 706 C 232 706 167 629 167 527 C 167 482 179 432 201 383 C 122 343 62 282 62 182 C 62 50 144 -9 270 -9 C 344 -9 409 24 464 85 C 515 51 570 21 628 -1 Z" unicode="&#x26;" />
<glyph horiz-adv-x="275" d="M 119 474 L 157 474 L 172 696 L 103 696 Z" unicode="'" />
<glyph horiz-adv-x="434" d="M 342 -183 L 349 -134 C 200 -91 124 55 124 261 C 124 467 200 613 349 657 L 342 705 C 174 663 68 503 68 261 C 68 19 174 -140 342 -183 Z" unicode="(" />
<glyph horiz-adv-x="434" d="M 352 261 C 352 503 246 663 78 705 L 71 657 C 220 613 296 467 296 261 C 296 55 220 -91 71 -134 L 78 -183 C 246 -140 352 19 352 261 Z" unicode=")" />
<glyph horiz-adv-x="491" d="M 398 364 L 423 405 L 268 496 L 423 586 L 399 628 L 258 519 L 268 696 L 222 696 L 232 519 L 90 628 L 67 586 L 223 496 L 67 405 L 90 364 L 232 472 L 222 296 L 268 296 L 258 472 Z" unicode="*" />
<glyph horiz-adv-x="742" d="M 348 8 L 394 8 L 394 282 L 637 282 L 637 328 L 394 328 L 394 602 L 348 602 L 348 328 L 105 328 L 105 282 L 348 282 Z" unicode="+" />
<glyph horiz-adv-x="301" d="M 73 -124 L 115 -124 C 150 -64 179 -6 194 101 L 124 101 C 116 0 102 -41 73 -124 Z" unicode="," />
<glyph horiz-adv-x="573" d="M 86 285 L 487 285 L 487 339 L 86 339 Z" unicode="-" />
<glyph horiz-adv-x="301" d="M 150 -6 C 182 -6 203 15 203 49 C 203 80 183 102 150 102 C 119 102 99 80 99 49 C 99 15 119 -6 150 -6 Z" unicode="." />
<glyph horiz-adv-x="476" d="M 51 -174 L 106 -174 L 425 696 L 371 696 Z" unicode="/" />
<glyph horiz-adv-x="626" d="M 313 -9 C 453 -9 552 95 552 356 C 552 602 454 705 314 705 C 173 705 74 602 74 356 C 74 95 173 -9 313 -9 Z M 313 41 C 203 41 130 120 130 356 C 130 575 203 655 313 655 C 424 655 496 575 496 356 C 496 120 423 41 313 41 Z" unicode="0" />
<glyph horiz-adv-x="626" d="M 117 0 L 560 0 L 560 50 L 376 50 L 376 696 L 321 696 C 305 592 220 524 107 521 L 113 466 C 206 468 293 521 320 596 L 320 50 L 117 50 Z" unicode="1" />
<glyph horiz-adv-x="626" d="M 103 0 L 538 0 L 538 50 L 159 50 L 159 100 C 159 193 208 240 338 305 C 472 372 530 433 530 525 C 530 633 447 705 326 705 C 196 705 118 641 99 503 L 154 496 C 174 612 229 655 327 655 C 416 655 475 604 475 525 C 475 457 446 418 311 350 C 182 285 103 224 103 100 Z" unicode="2" />
<glyph horiz-adv-x="626" d="M 317 -9 C 452 -9 543 62 543 198 C 543 286 493 362 384 372 C 479 379 526 436 526 520 C 526 646 427 705 311 705 C 189 705 119 651 92 539 L 148 524 C 170 620 214 657 311 657 C 399 657 471 616 471 520 C 471 435 432 395 312 395 L 213 395 L 213 346 L 311 346 C 443 346 486 296 486 198 C 486 88 419 40 317 40 C 221 40 160 72 134 187 L 76 170 C 104 42 191 -9 317 -9 Z" unicode="3" />
<glyph horiz-adv-x="626" d="M 568 192 L 568 241 L 446 241 L 446 697 L 371 697 L 69 241 L 69 192 L 390 192 L 390 0 L 446 0 L 446 192 Z M 126 241 L 390 640 L 390 241 Z" unicode="4" />
<glyph horiz-adv-x="626" d="M 318 -9 C 453 -9 542 83 542 225 C 542 380 457 455 320 455 C 264 455 208 437 168 399 L 168 647 L 508 647 L 508 696 L 112 696 L 112 341 L 163 341 C 196 385 247 403 315 403 C 429 403 485 340 485 225 C 485 109 425 41 318 41 C 213 41 166 84 145 193 L 89 186 C 116 50 182 -9 318 -9 Z" unicode="5" />
<glyph horiz-adv-x="626" d="M 548 220 C 548 354 462 435 329 435 C 237 435 173 399 139 339 L 139 428 C 139 583 193 655 313 655 C 410 655 447 613 474 535 L 535 550 C 504 649 441 705 314 705 C 162 705 83 608 83 428 L 83 240 C 83 88 164 -10 315 -10 C 467 -10 548 78 548 220 Z M 139 221 C 139 323 199 385 315 385 C 432 385 491 321 491 214 C 491 107 435 40 314 40 C 196 40 139 110 139 221 Z" unicode="6" />
<glyph horiz-adv-x="626" d="M 257 0 L 318 0 C 354 223 383 370 535 641 L 535 697 L 81 697 L 81 641 L 478 641 C 334 402 307 265 257 0 Z" unicode="7" />
<glyph horiz-adv-x="626" d="M 313 -10 C 456 -10 545 64 545 185 C 545 287 483 357 381 367 C 473 375 528 435 528 524 C 528 637 446 706 313 706 C 180 706 98 637 98 524 C 98 435 153 375 245 367 C 143 357 81 287 81 185 C 81 64 170 -10 313 -10 Z M 153 521 C 153 611 208 658 313 658 C 418 658 473 611 473 521 C 473 437 418 390 313 390 C 208 390 153 437 153 521 Z M 137 189 C 137 287 197 340 313 340 C 428 340 489 287 489 189 C 489 90 428 39 313 39 C 197 39 137 90 137 189 Z" unicode="8" />
<glyph horiz-adv-x="626" d="M 135 481 C 135 588 191 655 312 655 C 430 655 487 585 487 475 C 487 372 427 311 311 311 C 194 311 135 374 135 481 Z M 312 -10 C 464 -10 543 87 543 267 L 543 455 C 543 607 462 705 311 705 C 159 705 78 617 78 476 C 78 342 164 260 297 260 C 389 260 453 297 487 356 L 487 267 C 487 113 433 40 313 40 C 216 40 179 83 152 161 L 91 145 C 122 46 185 -10 312 -10 Z" unicode="9" />
<glyph horiz-adv-x="301" d="M 150 329 C 182 329 203 350 203 383 C 203 415 183 437 150 437 C 119 437 99 415 99 383 C 99 350 119 329 150 329 Z M 150 -6 C 182 -6 203 15 203 49 C 203 80 183 102 150 102 C 119 102 99 80 99 49 C 99 15 119 -6 150 -6 Z" unicode=":" />
<glyph horiz-adv-x="301" d="M 150 329 C 182 329 203 350 203 383 C 203 415 183 437 150 437 C 119 437 99 415 99 383 C 99 350 119 329 150 329 Z M 73 -124 L 115 -124 C 154 -56 180 -21 197 101 L 121 101 C 110 -14 105 -35 73 -124 Z" unicode=";" />
<glyph horiz-adv-x="742" d="M 610 9 L 612 62 L 185 305 L 612 548 L 610 601 L 131 328 L 131 282 Z" unicode="&#x3C;" />
<glyph horiz-adv-x="742" d="M 91 411 L 650 411 L 650 458 L 91 458 Z M 91 151 L 650 151 L 650 199 L 91 199 Z" unicode="=" />
<glyph horiz-adv-x="742" d="M 132 9 L 612 282 L 612 328 L 132 601 L 131 548 L 556 305 L 131 62 Z" unicode="&#x3E;" />
<glyph horiz-adv-x="537" d="M 257 203 L 261 316 C 422 328 490 396 490 514 C 490 636 404 705 272 705 C 129 705 58 627 44 505 L 100 498 C 111 605 160 655 272 655 C 375 655 434 604 434 514 C 434 423 400 366 211 352 L 215 203 Z M 237 -6 C 269 -6 284 15 284 45 C 284 74 269 97 237 97 C 204 97 189 74 189 45 C 189 15 204 -6 237 -6 Z" unicode="?" />
<glyph horiz-adv-x="937" d="M 529 -172 L 529 -125 C 298 -125 144 10 144 264 C 144 532 273 670 468 670 C 665 670 793 522 793 290 C 793 180 769 100 701 101 C 638 102 615 155 615 263 L 615 453 C 575 470 532 481 482 481 C 377 481 294 402 294 245 C 294 122 353 54 431 54 C 500 54 546 94 581 143 C 600 86 637 53 699 53 C 801 53 840 153 840 290 C 840 544 688 715 470 715 C 250 715 97 551 97 264 C 97 -17 273 -172 529 -172 Z M 439 102 C 384 102 343 146 343 245 C 343 372 401 434 481 435 C 513 434 542 426 565 417 L 565 262 C 565 235 567 210 570 188 C 539 140 496 102 439 102 Z" unicode="@" />
<glyph horiz-adv-x="620" d="M 432 269 L 187 269 L 309 633 Z M 522 0 L 581 0 L 337 697 L 284 697 L 40 0 L 97 0 L 171 221 L 448 221 Z" unicode="A" />
<glyph horiz-adv-x="626" d="M 90 0 L 355 0 C 491 0 566 77 566 197 C 566 292 512 361 405 370 C 490 384 527 445 527 523 C 527 630 455 696 330 696 L 90 696 Z M 145 647 L 326 647 C 428 647 473 601 473 517 C 473 434 430 387 333 387 L 145 387 Z M 145 339 L 349 339 C 460 339 509 289 509 197 C 509 101 460 49 349 49 L 145 49 Z" unicode="B" />
<glyph horiz-adv-x="620" d="M 324 -9 C 461 -9 544 72 560 188 L 507 199 C 492 102 435 41 324 41 C 202 41 120 123 120 355 C 120 572 202 655 324 655 C 429 655 488 598 506 491 L 560 503 C 540 627 457 705 325 705 C 173 705 64 599 64 355 C 64 99 172 -9 324 -9 Z" unicode="C" />
<glyph horiz-adv-x="655" d="M 95 0 L 307 0 C 467 0 591 95 591 352 C 591 600 468 696 308 696 L 95 696 Z M 150 50 L 150 647 L 307 647 C 439 647 536 569 536 352 C 536 123 439 50 307 50 Z" unicode="D" />
<glyph horiz-adv-x="569" d="M 95 0 L 513 0 L 513 49 L 150 49 L 150 352 L 474 352 L 474 401 L 150 401 L 150 647 L 513 647 L 513 696 L 95 696 Z" unicode="E" />
<glyph horiz-adv-x="548" d="M 95 0 L 150 0 L 150 339 L 452 339 L 452 388 L 150 388 L 150 647 L 504 647 L 504 696 L 95 696 Z" unicode="F" />
<glyph horiz-adv-x="637" d="M 575 291 L 575 352 L 317 352 L 317 302 L 519 302 L 519 294 C 519 104 446 41 325 41 C 201 41 120 123 120 356 C 120 573 201 655 324 655 C 425 655 479 605 499 524 L 554 539 C 528 639 452 705 325 705 C 171 705 64 600 64 356 C 64 99 171 -9 325 -9 C 473 -9 575 76 575 291 Z" unicode="G" />
<glyph horiz-adv-x="654" d="M 95 0 L 150 0 L 150 352 L 504 352 L 504 0 L 560 0 L 560 696 L 504 696 L 504 400 L 150 400 L 150 696 L 95 696 Z" unicode="H" />
<glyph horiz-adv-x="428" d="M 47 0 L 381 0 L 381 49 L 242 49 L 242 647 L 381 647 L 381 696 L 47 696 L 47 647 L 186 647 L 186 49 L 47 49 Z" unicode="I" />
<glyph horiz-adv-x="536" d="M 240 -9 C 376 -9 450 87 450 221 L 450 696 L 394 696 L 394 220 C 394 116 345 41 242 41 C 145 41 95 102 85 218 L 29 211 C 38 68 123 -9 240 -9 Z" unicode="J" />
<glyph horiz-adv-x="588" d="M 485 -1 L 550 1 L 298 412 L 546 695 L 485 696 L 150 316 L 150 696 L 95 696 L 95 0 L 150 0 L 150 244 L 261 370 Z" unicode="K" />
<glyph horiz-adv-x="494" d="M 95 0 L 460 0 L 460 50 L 150 50 L 150 696 L 95 696 Z" unicode="L" />
<glyph horiz-adv-x="757" d="M 360 126 L 399 126 L 609 583 L 609 0 L 663 0 L 663 697 L 608 697 L 382 200 L 152 697 L 95 697 L 95 0 L 148 0 L 148 582 Z" unicode="M" />
<glyph horiz-adv-x="658" d="M 563 -1 L 563 696 L 511 696 L 511 82 L 161 696 L 95 696 L 95 0 L 146 0 L 146 614 L 497 -1 Z" unicode="N" />
<glyph horiz-adv-x="650" d="M 326 -9 C 480 -9 586 95 586 356 C 586 602 479 705 327 705 C 173 705 64 602 64 356 C 64 95 172 -9 326 -9 Z M 326 41 C 202 41 120 120 120 356 C 120 575 202 655 326 655 C 449 655 530 575 530 356 C 530 120 449 41 326 41 Z" unicode="O" />
<glyph horiz-adv-x="573" d="M 95 0 L 150 0 L 150 235 L 282 235 C 421 235 522 308 522 466 C 522 625 421 696 282 696 L 95 696 Z M 150 283 L 150 647 L 280 647 C 388 647 466 597 466 466 C 466 334 388 283 280 283 Z" unicode="P" />
<glyph horiz-adv-x="650" d="M 561 -167 L 552 -117 C 434 -141 372 -108 365 -7 C 498 10 586 117 586 356 C 586 602 479 705 327 705 C 173 705 64 602 64 356 C 64 104 164 -2 310 -9 C 316 -145 403 -199 561 -167 Z M 326 41 C 202 41 120 120 120 356 C 120 575 202 655 326 655 C 449 655 530 575 530 356 C 530 120 450 41 326 41 Z" unicode="Q" />
<glyph horiz-adv-x="615" d="M 150 326 L 150 647 L 334 647 C 434 647 491 585 491 485 C 491 391 434 326 334 326 Z M 150 0 L 150 278 L 311 278 L 491 0 L 555 0 L 373 281 C 483 297 547 384 547 485 C 547 615 468 696 336 696 L 95 696 L 95 0 Z" unicode="R" />
<glyph horiz-adv-x="597" d="M 306 -5 C 441 -5 533 70 533 182 C 533 289 466 346 310 379 C 173 410 135 447 135 523 C 135 608 197 650 287 650 C 378 650 435 606 475 546 L 516 577 C 472 652 396 700 289 700 C 163 700 80 628 80 520 C 80 414 144 362 286 329 C 430 296 479 260 479 178 C 479 91 410 44 306 44 C 201 44 136 87 95 161 L 52 129 C 104 41 191 -5 306 -5 Z" unicode="S" />
<glyph horiz-adv-x="545" d="M 245 0 L 301 0 L 301 647 L 513 647 L 513 696 L 32 696 L 32 647 L 245 647 Z" unicode="T" />
<glyph horiz-adv-x="645" d="M 322 -9 C 477 -9 560 103 560 245 L 560 696 L 504 696 L 504 244 C 504 131 449 41 322 41 C 197 41 141 131 141 244 L 141 696 L 85 696 L 85 245 C 85 103 169 -9 322 -9 Z" unicode="U" />
<glyph horiz-adv-x="623" d="M 338 -1 L 585 696 L 528 696 L 313 63 L 98 696 L 38 696 L 285 -1 Z" unicode="V" />
<glyph horiz-adv-x="803" d="M 554 0 L 610 0 L 765 696 L 712 696 L 582 78 L 426 622 L 377 622 L 223 77 L 93 696 L 37 696 L 192 0 L 249 0 L 401 542 Z" unicode="W" />
<glyph horiz-adv-x="612" d="M 498 0 L 563 0 L 339 349 L 559 696 L 497 696 L 309 396 L 116 696 L 52 696 L 272 353 L 49 0 L 112 0 L 302 306 Z" unicode="X" />
<glyph horiz-adv-x="586" d="M 321 0 L 321 266 L 558 696 L 497 696 L 295 318 L 90 696 L 27 696 L 265 266 L 265 0 Z" unicode="Y" />
<glyph horiz-adv-x="583" d="M 523 0 L 523 50 L 124 50 L 523 647 L 523 696 L 60 696 L 60 647 L 457 647 L 60 50 L 60 0 Z" unicode="Z" />
<glyph horiz-adv-x="434" d="M 88 -174 L 366 -174 L 366 -125 L 144 -125 L 144 647 L 366 647 L 366 696 L 88 696 Z" unicode="[" />
<glyph horiz-adv-x="476" d="M 371 -174 L 425 -174 L 106 696 L 51 696 Z" unicode="\" />
<glyph horiz-adv-x="434" d="M 60 -174 L 336 -174 L 336 696 L 60 696 L 60 647 L 280 647 L 280 -125 L 60 -125 Z" unicode="]" />
<glyph horiz-adv-x="746" d="M 582 184 L 634 185 L 397 696 L 349 696 L 111 185 L 164 184 L 373 632 Z" unicode="^" />
<glyph horiz-adv-x="742" d="M 95 -155 L 647 -155 L 647 -101 L 95 -101 Z" unicode="_" />
<glyph horiz-adv-x="285" d="M 204 472 C 173 562 165 580 154 696 L 83 696 C 101 574 125 539 164 472 Z" unicode="`" />
<glyph horiz-adv-x="530" d="M 225 38 C 155 38 111 76 111 142 C 111 209 157 242 221 242 L 371 242 L 371 110 C 334 68 282 38 225 38 Z M 503 -1 L 503 49 C 454 33 425 55 425 108 L 425 368 C 425 472 355 532 254 532 C 164 532 104 492 71 416 L 117 391 C 145 457 183 484 249 484 C 327 484 371 440 371 359 L 371 288 L 218 288 C 121 288 57 231 57 137 C 57 43 127 -10 213 -10 C 279 -10 343 25 387 73 C 388 16 441 -15 503 -1 Z" unicode="a" />
<glyph horiz-adv-x="558" d="M 286 -9 C 397 -9 493 69 493 270 C 493 448 415 532 313 532 C 238 532 187 485 150 431 L 150 716 L 95 716 L 95 0 L 148 0 L 148 27 C 183 5 228 -9 286 -9 Z M 277 41 C 225 42 185 55 150 79 L 150 380 C 189 442 239 479 297 479 C 377 479 437 425 437 270 C 437 101 368 42 277 41 Z" unicode="b" />
<glyph horiz-adv-x="516" d="M 275 -9 C 365 -9 432 37 461 135 L 410 151 C 386 70 340 41 274 41 C 178 41 122 106 122 262 C 122 416 178 482 274 482 C 340 482 386 452 410 371 L 461 387 C 432 486 366 532 276 532 C 148 532 65 444 65 262 C 65 76 148 -9 275 -9 Z" unicode="c" />
<glyph horiz-adv-x="558" d="M 280 482 C 330 481 373 467 408 443 L 408 142 C 370 80 319 44 261 44 C 181 44 121 98 121 252 C 121 422 190 481 280 482 Z M 272 532 C 161 532 65 453 65 252 C 65 74 143 -9 245 -9 C 320 -9 373 37 410 91 L 410 0 L 463 0 L 463 716 L 408 716 L 408 495 C 372 517 327 532 272 532 Z" unicode="d" />
<glyph horiz-adv-x="533" d="M 277 484 C 356 484 417 430 418 304 L 418 300 L 123 300 C 132 427 185 484 277 484 Z M 462 73 L 426 108 C 392 62 346 41 289 41 C 183 41 125 110 122 253 L 474 253 L 474 298 C 474 450 387 532 278 532 C 148 532 65 444 65 263 C 65 84 150 -9 289 -9 C 358 -9 426 18 462 73 Z" unicode="e" />
<glyph horiz-adv-x="394" d="M 147 0 L 203 0 L 203 473 L 358 473 L 358 522 L 203 522 L 203 572 C 203 674 288 678 351 655 L 363 700 C 260 737 147 699 147 571 L 147 522 L 38 522 L 38 473 L 147 473 Z" unicode="f" />
<glyph horiz-adv-x="563" d="M 273 254 C 204 254 150 291 150 367 C 150 443 205 480 274 480 C 343 480 397 443 397 367 C 397 290 343 254 273 254 Z M 521 -23 C 521 54 467 96 379 96 L 217 96 C 157 96 129 119 129 158 C 129 186 144 211 182 230 C 207 216 238 208 271 208 C 377 208 449 275 449 369 C 449 419 428 461 392 489 C 423 483 459 479 504 477 L 504 522 L 317 522 C 303 525 289 526 273 526 C 173 526 100 461 100 369 C 100 319 120 277 155 248 C 110 231 81 190 81 143 C 81 102 104 69 149 53 C 91 26 62 -12 62 -63 C 62 -131 125 -187 272 -187 C 426 -187 521 -122 521 -23 Z M 282 -140 C 155 -140 114 -101 114 -52 C 114 -15 136 16 187 44 C 196 43 206 43 215 43 L 379 43 C 435 43 470 20 470 -29 C 470 -98 399 -140 282 -140 Z" unicode="g" />
<glyph horiz-adv-x="566" d="M 150 0 L 150 367 C 187 433 241 479 309 479 C 378 479 422 432 422 346 L 422 0 L 478 0 L 478 358 C 478 464 419 532 324 532 C 248 532 195 490 150 419 L 150 716 L 95 716 L 95 0 Z" unicode="h" />
<glyph horiz-adv-x="244" d="M 122 631 C 146 631 164 644 164 671 C 164 699 146 712 122 712 C 98 712 80 699 80 672 C 80 644 98 631 122 631 Z M 95 0 L 150 0 L 150 522 L 95 522 Z" unicode="i" />
<glyph horiz-adv-x="269" d="M 141 631 C 166 631 183 644 183 671 C 183 699 166 712 141 712 C 116 712 100 699 100 672 C 100 644 116 631 141 631 Z M 36 -181 C 110 -181 169 -136 169 -35 L 169 522 L 113 522 L 113 -37 C 113 -105 79 -130 32 -130 C 10 -130 -12 -123 -38 -113 L -51 -164 C -20 -174 7 -181 36 -181 Z" unicode="j" />
<glyph horiz-adv-x="508" d="M 415 -1 L 476 1 L 285 308 L 463 521 L 401 523 L 150 215 L 150 716 L 95 716 L 95 0 L 150 0 L 150 146 L 249 265 Z" unicode="k" />
<glyph horiz-adv-x="244" d="M 95 0 L 150 0 L 150 716 L 95 716 Z" unicode="l" />
<glyph horiz-adv-x="843" d="M 150 382 C 189 440 239 479 304 479 C 362 479 397 438 397 360 L 397 0 L 453 0 L 453 382 C 492 440 542 479 607 479 C 665 479 700 438 700 360 L 700 0 L 756 0 L 756 373 C 756 470 705 532 623 532 C 555 532 499 498 446 425 C 431 491 385 532 319 532 C 253 532 197 498 150 433 L 150 522 L 95 522 L 95 0 L 150 0 Z" unicode="m" />
<glyph horiz-adv-x="566" d="M 150 0 L 150 367 C 187 433 242 479 309 479 C 378 479 422 432 422 346 L 422 0 L 478 0 L 478 358 C 478 464 419 532 324 532 C 249 532 195 490 150 419 L 150 522 L 95 522 L 95 0 Z" unicode="n" />
<glyph horiz-adv-x="541" d="M 270 -9 C 393 -9 476 76 476 260 C 476 444 392 532 271 532 C 147 532 65 444 65 261 C 65 76 147 -9 270 -9 Z M 270 41 C 177 41 122 106 122 261 C 122 413 177 482 270 482 C 364 482 419 413 419 260 C 419 106 364 41 270 41 Z" unicode="o" />
<glyph horiz-adv-x="558" d="M 277 41 C 225 42 185 55 150 79 L 150 380 C 188 443 239 479 297 479 C 377 479 437 425 437 270 C 437 101 368 42 277 41 Z M 286 -9 C 397 -9 493 69 493 270 C 493 448 415 532 313 532 C 238 532 185 486 148 431 L 148 522 L 95 522 L 95 -174 L 150 -174 L 150 27 C 184 5 228 -9 286 -9 Z" unicode="p" />
<glyph horiz-adv-x="558" d="M 272 532 C 161 532 65 453 65 252 C 65 74 143 -9 245 -9 C 319 -9 371 38 408 91 L 408 -174 L 463 -174 L 463 522 L 410 522 L 410 495 C 373 517 328 532 272 532 Z M 280 482 C 330 481 373 467 408 443 L 408 142 C 370 80 319 44 261 44 C 181 44 121 98 121 252 C 121 422 190 481 280 482 Z" unicode="q" />
<glyph horiz-adv-x="382" d="M 150 0 L 150 379 C 187 443 242 480 303 480 C 324 480 346 475 360 468 L 373 518 C 357 526 331 530 310 530 C 237 530 186 488 150 428 L 150 522 L 95 522 L 95 0 Z" unicode="r" />
<glyph horiz-adv-x="498" d="M 254 -9 C 356 -9 441 41 441 136 C 441 230 379 262 266 288 C 165 309 127 329 127 390 C 127 453 180 482 243 482 C 299 482 354 459 397 425 L 425 467 C 373 509 308 532 243 532 C 149 532 72 481 72 387 C 72 295 132 260 249 235 C 347 213 386 194 386 133 C 386 66 323 41 254 41 C 192 41 130 60 84 97 L 57 54 C 112 11 181 -9 254 -9 Z" unicode="s" />
<glyph horiz-adv-x="405" d="M 275 -8 C 307 -8 339 -1 371 12 L 359 61 C 330 49 303 43 279 43 C 226 43 191 79 191 158 L 191 473 L 362 473 L 362 522 L 191 522 L 191 666 L 135 666 L 135 522 L 28 522 L 28 473 L 135 473 L 135 161 C 135 49 185 -8 275 -8 Z" unicode="t" />
<glyph horiz-adv-x="566" d="M 419 522 L 419 155 C 382 89 327 44 259 44 C 190 44 146 90 146 177 L 146 522 L 90 522 L 90 165 C 90 58 149 -9 244 -9 C 320 -9 373 33 419 104 L 419 0 L 475 0 L 475 522 Z" unicode="u" />
<glyph horiz-adv-x="491" d="M 273 0 L 457 522 L 400 522 L 246 64 L 92 522 L 34 522 L 216 0 Z" unicode="v" />
<glyph horiz-adv-x="716" d="M 478 0 L 534 0 L 672 522 L 619 522 L 507 66 L 382 482 L 334 482 L 212 69 L 101 522 L 45 522 L 183 0 L 239 0 L 357 402 Z" unicode="w" />
<glyph horiz-adv-x="475" d="M 377 0 L 437 0 L 268 262 L 433 522 L 376 522 L 240 306 L 101 522 L 42 522 L 208 264 L 39 0 L 97 0 L 235 221 Z" unicode="x" />
<glyph horiz-adv-x="497" d="M 110 -180 C 178 -180 227 -143 259 -49 L 460 522 L 403 522 L 252 65 L 99 522 L 40 522 L 224 -6 L 218 -22 C 197 -88 173 -130 113 -130 C 96 -130 72 -127 53 -122 L 44 -172 C 66 -178 88 -180 110 -180 Z" unicode="y" />
<glyph horiz-adv-x="475" d="M 418 0 L 418 50 L 122 50 L 418 473 L 418 522 L 57 522 L 57 473 L 356 473 L 57 50 L 57 0 Z" unicode="z" />
<glyph horiz-adv-x="434" d="M 383 -137 C 256 -140 209 -109 209 -17 L 209 163 C 209 228 183 264 112 270 L 112 274 C 183 277 209 307 209 374 L 209 541 C 209 630 257 662 383 660 L 383 705 C 222 707 153 664 153 548 L 153 375 C 153 316 126 293 43 291 L 43 252 C 127 250 153 226 153 162 L 153 -27 C 153 -140 220 -185 383 -183 Z" unicode="{" />
<glyph horiz-adv-x="472" d="M 210 -174 L 260 -174 L 260 696 L 210 696 Z" unicode="|" />
<glyph horiz-adv-x="434" d="M 51 -137 L 51 -183 C 214 -185 280 -140 280 -27 L 280 162 C 280 226 307 250 391 252 L 391 291 C 308 293 280 316 280 375 L 280 548 C 280 664 212 707 51 705 L 51 660 C 177 662 225 630 225 541 L 225 374 C 225 307 251 277 322 274 L 322 270 C 251 264 225 228 225 163 L 225 -17 C 225 -109 178 -140 51 -137 Z" unicode="}" />
<glyph horiz-adv-x="746" d="M 509 184 C 595 184 649 247 649 362 L 649 503 L 601 503 L 601 366 C 601 271 566 230 517 230 C 461 230 433 294 391 373 C 351 451 312 513 238 513 C 153 513 97 449 97 333 L 97 193 L 146 193 L 146 329 C 146 426 181 466 230 466 C 289 466 318 404 359 327 C 401 247 438 184 509 184 Z" unicode="~" />
<glyph horiz-adv-x="274" d="" unicode=" " />
<glyph horiz-adv-x="335" d="M 168 702 C 135 702 121 681 121 651 C 121 622 135 600 168 600 C 200 600 215 622 215 651 C 215 681 200 702 168 702 Z M 187 493 L 148 493 L 133 0 L 203 0 Z" unicode="¡" />
<glyph horiz-adv-x="526" d="M 463 221 L 411 238 C 391 165 352 134 297 128 L 297 566 C 351 560 390 530 411 456 L 463 474 C 435 565 376 611 297 617 L 297 740 L 255 740 L 255 617 C 141 607 66 519 66 348 C 66 173 141 87 255 78 L 255 -44 L 297 -44 L 297 78 C 376 85 436 131 463 221 Z M 123 348 C 123 490 172 557 255 566 L 255 128 C 171 137 123 203 123 348 Z" unicode="¢" />
<glyph horiz-adv-x="650" d="M 581 184 C 584 183 525 191 525 191 C 516 96 490 47 419 47 C 369 47 338 81 295 90 C 255 101 223 114 171 79 L 164 90 C 227 139 247 200 247 251 C 247 291 239 324 227 355 L 402 355 L 402 405 L 198 405 C 181 440 165 475 165 519 C 165 606 218 652 325 652 C 433 652 477 617 491 529 L 547 536 C 533 647 468 704 325 704 C 191 704 109 633 109 521 C 109 473 121 437 136 405 L 58 405 L 58 355 L 167 355 C 180 323 190 290 190 246 C 190 182 149 110 100 74 L 48 40 L 82 -7 L 138 34 C 187 66 228 59 270 46 C 319 32 357 -7 419 -7 C 513 -7 571 61 581 184 Z" unicode="£" />
<glyph horiz-adv-x="708" d="M 355 131 C 261 131 206 196 206 352 C 206 503 261 572 355 572 C 448 572 503 503 503 351 C 503 196 448 131 355 131 Z M 355 81 C 416 81 467 102 503 146 L 592 52 L 631 84 L 531 192 C 550 233 560 286 560 351 C 560 413 550 465 532 506 L 633 612 L 595 643 L 506 551 C 470 598 418 622 356 622 C 292 622 239 599 203 551 L 116 645 L 76 613 L 176 505 C 159 465 149 414 149 352 C 149 286 160 232 179 191 L 74 79 L 114 47 L 207 146 C 243 102 294 81 355 81 Z" unicode="¤" />
<glyph horiz-adv-x="472" d="M 210 349 L 260 349 L 260 696 L 210 696 Z M 210 -174 L 260 -174 L 260 174 L 210 174 Z" unicode="¦" />
<glyph horiz-adv-x="679" d="M 359 157 C 348 160 333 163 321 166 C 254 183 199 207 199 266 C 199 337 260 368 327 369 C 338 366 352 363 364 360 C 431 345 486 319 486 259 C 486 188 427 159 359 157 Z M 358 -176 C 463 -176 542 -121 542 -13 C 542 64 501 106 426 135 C 492 150 542 193 542 267 C 542 354 480 390 360 417 C 260 437 196 465 196 548 C 196 614 253 651 326 651 C 389 651 441 628 495 580 L 525 624 C 473 674 402 701 329 701 C 229 701 143 648 143 540 C 143 461 184 420 260 390 C 194 375 143 332 143 256 C 143 173 208 135 328 110 C 426 87 490 60 490 -20 C 490 -95 430 -126 360 -126 C 297 -126 245 -103 192 -56 L 161 -100 C 212 -148 284 -176 358 -176 Z" unicode="§" />
<glyph horiz-adv-x="528" d="M 346 631 C 370 631 387 644 387 671 C 387 699 370 712 346 712 C 320 712 304 699 304 672 C 304 644 320 631 346 631 Z M 181 631 C 205 631 224 644 224 671 C 224 699 206 712 181 712 C 157 712 139 699 139 672 C 139 644 157 631 181 631 Z" unicode="¨" />
<glyph horiz-adv-x="820" d="M 412 -91 C 608 -91 756 26 756 327 C 756 621 608 739 413 739 C 215 739 64 621 64 332 C 64 26 214 -91 412 -91 Z M 412 -57 C 223 -57 102 53 102 332 C 102 591 224 704 412 704 C 599 704 718 591 718 327 C 718 53 599 -57 412 -57 Z M 415 92 C 507 92 564 152 574 236 L 527 240 C 520 176 480 137 415 137 C 341 137 293 185 293 331 C 293 471 342 510 414 510 C 479 510 520 468 527 399 L 574 403 C 564 492 507 555 415 555 C 305 555 243 492 243 331 C 243 164 305 92 415 92 Z" unicode="©" />
<glyph horiz-adv-x="445" d="M 176 337 C 122 337 96 364 96 414 C 96 467 130 489 179 489 L 286 489 L 286 401 C 256 357 218 337 176 337 Z M 164 298 C 224 298 273 330 302 375 L 302 367 C 302 305 351 295 405 302 L 404 345 C 353 336 332 347 332 404 L 332 579 C 332 664 276 705 196 705 C 115 705 74 668 57 598 L 99 584 C 118 648 142 665 198 665 C 255 665 286 629 286 572 L 286 524 L 165 524 C 100 524 49 482 49 412 C 49 331 103 298 164 298 Z" unicode="ª" />
<glyph horiz-adv-x="621" d="M 309 96 L 309 157 L 113 305 L 309 453 L 309 514 L 71 335 L 71 274 Z M 549 96 L 549 157 L 353 305 L 549 453 L 549 514 L 312 335 L 312 274 Z" unicode="«" />
<glyph horiz-adv-x="742" d="M 586 8 L 641 8 L 641 336 L 101 336 L 101 282 L 586 282 Z" unicode="¬" />
<glyph horiz-adv-x="573" d="M 86 285 L 487 285 L 487 339 L 86 339 Z" unicode="­" />
<glyph horiz-adv-x="643" d="M 322 182 C 479 182 571 279 571 465 C 571 647 479 746 323 746 C 167 746 71 647 71 462 C 71 279 166 182 322 182 Z M 322 218 C 180 218 111 301 111 463 C 111 624 181 710 322 709 C 463 710 533 624 533 465 C 533 301 463 218 322 218 Z M 272 461 L 272 577 L 334 577 C 363 577 386 562 386 516 C 386 474 363 461 334 461 Z M 272 318 L 272 424 L 315 424 L 386 318 L 433 318 L 360 426 C 397 431 429 456 429 516 C 429 589 383 614 334 614 L 231 614 L 231 318 Z" unicode="®" />
<glyph horiz-adv-x="528" d="M 103 659 L 424 659 L 424 704 L 103 704 Z" unicode="¯" />
<glyph horiz-adv-x="475" d="M 237 319 C 328 319 389 378 389 512 C 389 642 329 701 238 701 C 146 701 84 642 84 512 C 84 378 146 319 237 319 Z M 237 367 C 171 367 136 407 136 511 C 136 612 171 653 238 653 C 302 653 337 612 337 510 C 337 407 303 367 237 367 Z" unicode="°" />
<glyph horiz-adv-x="742" d="M 348 96 L 394 96 L 394 369 L 637 369 L 637 416 L 394 416 L 394 689 L 348 689 L 348 416 L 105 416 L 105 369 L 348 369 Z M 101 17 L 641 17 L 641 65 L 101 65 Z" unicode="±" />
<glyph horiz-adv-x="528" d="M 188 600 L 233 599 C 283 649 328 703 370 760 L 289 761 C 259 705 226 651 188 600 Z" unicode="´" />
<glyph horiz-adv-x="686" d="M 484 296 L 484 -174 L 540 -174 L 540 696 L 306 696 C 203 696 120 636 120 493 C 120 349 206 296 314 296 L 314 -174 L 370 -174 L 370 296 Z" unicode="¶" />
<glyph horiz-adv-x="477" d="M 239 275 C 280 275 308 299 308 347 C 308 393 280 418 239 418 C 197 418 169 393 169 347 C 169 299 197 275 239 275 Z" unicode="·" />
<glyph horiz-adv-x="528" d="M 262 -185 C 319 -185 373 -160 373 -105 C 373 -61 335 -34 283 -27 L 285 8 L 245 8 L 242 -55 C 303 -58 323 -74 323 -105 C 323 -134 300 -147 263 -147 C 222 -147 199 -133 190 -93 L 148 -100 C 160 -157 203 -185 262 -185 Z" unicode="¸" />
<glyph horiz-adv-x="467" d="M 234 298 C 330 298 395 357 395 505 C 395 642 331 705 235 705 C 136 705 71 642 71 504 C 71 357 136 298 234 298 Z M 234 338 C 160 338 118 382 118 505 C 118 617 160 663 235 663 C 307 663 349 617 349 505 C 349 382 308 338 234 338 Z" unicode="º" />
<glyph horiz-adv-x="621" d="M 312 96 L 549 274 L 549 335 L 312 514 L 312 453 L 508 305 L 312 157 Z M 71 96 L 309 274 L 309 335 L 71 514 L 71 453 L 268 305 L 71 157 Z" unicode="»" />
<glyph horiz-adv-x="958" d="M 301 0 L 356 0 L 675 696 L 621 696 Z" unicode="¼" />
<glyph horiz-adv-x="933" d="M 280 0 L 335 0 L 654 696 L 601 696 Z" unicode="½" />
<glyph horiz-adv-x="993" d="M 325 0 L 380 0 L 699 696 L 645 696 Z" unicode="¾" />
<glyph horiz-adv-x="537" d="M 297 705 C 264 705 250 683 250 653 C 250 624 264 602 297 602 C 329 602 345 624 345 653 C 345 683 329 705 297 705 Z M 276 495 L 272 382 C 112 370 44 303 44 185 C 44 63 129 -6 261 -6 C 404 -6 476 72 490 193 L 434 200 C 423 93 374 44 261 44 C 159 44 100 95 100 185 C 100 276 133 333 322 347 L 318 495 Z" unicode="¿" />
<glyph horiz-adv-x="620" d="M 332 772 L 372 773 C 335 824 302 878 271 935 L 194 934 C 236 877 283 823 332 772 Z M 432 269 L 187 269 L 309 633 Z M 522 0 L 581 0 L 337 697 L 284 697 L 40 0 L 97 0 L 171 221 L 448 221 Z" unicode="À" />
<glyph horiz-adv-x="620" d="M 236 773 L 280 772 C 330 823 376 877 418 934 L 336 935 C 307 879 273 825 236 773 Z M 432 269 L 187 269 L 309 633 Z M 522 0 L 581 0 L 337 697 L 284 697 L 40 0 L 97 0 L 171 221 L 448 221 Z" unicode="Á" />
<glyph horiz-adv-x="620" d="M 169 787 C 220 819 267 855 310 893 C 355 854 402 818 453 787 L 479 814 C 427 855 378 897 332 944 L 288 944 C 243 898 195 855 143 814 Z M 432 269 L 187 269 L 309 633 Z M 522 0 L 581 0 L 337 697 L 284 697 L 40 0 L 97 0 L 171 221 L 448 221 Z" unicode="Â" />
<glyph horiz-adv-x="620" d="M 380 788 C 444 788 479 848 479 933 L 479 946 L 431 946 L 431 936 C 431 869 413 834 384 834 C 360 834 343 865 325 893 C 306 924 286 954 243 954 C 179 954 143 893 143 809 L 143 796 L 192 796 L 192 806 C 191 873 209 908 238 908 C 263 908 280 878 299 850 C 318 819 339 788 380 788 Z M 432 269 L 187 269 L 309 633 Z M 522 0 L 581 0 L 337 697 L 284 697 L 40 0 L 97 0 L 171 221 L 448 221 Z" unicode="Ã" />
<glyph horiz-adv-x="620" d="M 393 805 C 418 805 435 818 435 845 C 435 873 418 886 393 886 C 368 886 352 873 352 846 C 352 818 368 805 393 805 Z M 229 805 C 253 805 271 818 271 845 C 271 873 254 886 229 886 C 204 886 187 873 187 846 C 187 818 204 805 229 805 Z M 432 269 L 187 269 L 309 633 Z M 522 0 L 581 0 L 337 697 L 284 697 L 40 0 L 97 0 L 171 221 L 448 221 Z" unicode="Ä" />
<glyph horiz-adv-x="620" d="M 311 763 C 386 763 436 810 436 897 C 436 986 386 1035 311 1035 C 236 1035 186 986 186 897 C 186 810 236 763 311 763 Z M 311 801 C 258 801 228 834 228 897 C 228 959 258 996 311 996 C 364 996 394 959 394 897 C 394 834 364 801 311 801 Z M 432 269 L 187 269 L 309 633 Z M 522 0 L 581 0 L 337 697 L 284 697 L 40 0 L 97 0 L 171 221 L 448 221 Z" unicode="Å" />
<glyph horiz-adv-x="811" d="M 329 647 L 420 647 L 420 277 L 194 277 Z M 420 229 L 420 0 L 762 0 L 762 50 L 476 50 L 476 352 L 723 352 L 723 401 L 476 401 L 476 647 L 762 647 L 762 696 L 295 696 L 37 0 L 96 0 L 178 229 Z" unicode="Æ" />
<glyph horiz-adv-x="624" d="M 329 -185 C 386 -185 440 -160 440 -105 C 440 -61 402 -34 350 -27 L 351 -8 C 472 2 545 80 560 188 L 507 199 C 492 102 435 41 324 41 C 202 41 120 123 120 355 C 120 572 202 655 324 655 C 429 655 488 598 506 491 L 560 503 C 540 627 457 705 325 705 C 173 705 64 599 64 355 C 64 106 166 -3 311 -9 L 309 -55 C 370 -58 390 -74 390 -105 C 390 -134 367 -147 330 -147 C 289 -147 266 -133 257 -93 L 215 -100 C 227 -157 270 -185 329 -185 Z" unicode="Ç" />
<glyph horiz-adv-x="569" d="M 314 772 L 354 773 C 317 824 284 878 253 935 L 176 934 C 217 877 264 823 314 772 Z M 95 0 L 513 0 L 513 49 L 150 49 L 150 352 L 474 352 L 474 401 L 150 401 L 150 647 L 513 647 L 513 696 L 95 696 Z" unicode="È" />
<glyph horiz-adv-x="569" d="M 217 773 L 262 772 C 312 823 358 877 399 934 L 318 935 C 289 879 255 825 217 773 Z M 95 0 L 513 0 L 513 49 L 150 49 L 150 352 L 474 352 L 474 401 L 150 401 L 150 647 L 513 647 L 513 696 L 95 696 Z" unicode="É" />
<glyph horiz-adv-x="569" d="M 150 787 C 201 819 249 855 292 893 C 336 854 384 818 435 787 L 460 814 C 409 855 360 897 314 944 L 269 944 C 225 898 177 855 125 814 Z M 95 0 L 513 0 L 513 49 L 150 49 L 150 352 L 474 352 L 474 401 L 150 401 L 150 647 L 513 647 L 513 696 L 95 696 Z" unicode="Ê" />
<glyph horiz-adv-x="569" d="M 381 805 C 405 805 423 818 423 845 C 423 873 405 886 381 886 C 356 886 339 873 339 846 C 339 818 356 805 381 805 Z M 216 805 C 241 805 259 818 259 845 C 259 873 242 886 216 886 C 192 886 175 873 175 846 C 175 818 192 805 216 805 Z M 95 0 L 513 0 L 513 49 L 150 49 L 150 352 L 474 352 L 474 401 L 150 401 L 150 647 L 513 647 L 513 696 L 95 696 Z" unicode="Ë" />
<glyph horiz-adv-x="428" d="M 226 772 L 265 773 C 229 824 195 878 165 935 L 87 934 C 129 877 176 823 226 772 Z M 47 0 L 381 0 L 381 49 L 242 49 L 242 647 L 381 647 L 381 696 L 47 696 L 47 647 L 186 647 L 186 49 L 47 49 Z" unicode="Ì" />
<glyph horiz-adv-x="428" d="M 160 773 L 204 772 C 254 823 300 877 341 934 L 260 935 C 231 879 197 825 160 773 Z M 47 0 L 381 0 L 381 49 L 242 49 L 242 647 L 381 647 L 381 696 L 47 696 L 47 647 L 186 647 L 186 49 L 47 49 Z" unicode="Í" />
<glyph horiz-adv-x="428" d="M 69 787 C 120 819 168 855 210 893 C 255 854 303 818 354 787 L 379 814 C 327 855 278 897 233 944 L 188 944 C 143 898 96 855 44 814 Z M 47 0 L 381 0 L 381 49 L 242 49 L 242 647 L 381 647 L 381 696 L 47 696 L 47 647 L 186 647 L 186 49 L 47 49 Z" unicode="Î" />
<glyph horiz-adv-x="428" d="M 297 805 C 321 805 338 818 338 845 C 338 873 321 886 297 886 C 271 886 255 873 255 846 C 255 818 271 805 297 805 Z M 132 805 C 157 805 175 818 175 845 C 175 873 158 886 132 886 C 108 886 90 873 90 846 C 90 818 108 805 132 805 Z M 47 0 L 381 0 L 381 49 L 242 49 L 242 647 L 381 647 L 381 696 L 47 696 L 47 647 L 186 647 L 186 49 L 47 49 Z" unicode="Ï" />
<glyph horiz-adv-x="659" d="M 310 0 C 471 0 595 95 595 352 C 595 600 472 696 311 696 L 98 696 L 98 403 L 11 403 L 11 353 L 98 353 L 98 0 Z M 153 50 L 153 353 L 331 353 L 331 403 L 153 403 L 153 647 L 310 647 C 442 647 539 569 539 352 C 539 123 442 50 310 50 Z" unicode="Ð" />
<glyph horiz-adv-x="658" d="M 415 788 C 479 788 513 848 513 933 L 513 946 L 465 946 L 465 936 C 465 869 447 834 419 834 C 394 834 378 865 360 893 C 340 924 320 954 277 954 C 213 954 178 893 178 809 L 178 796 L 227 796 L 227 806 C 226 873 244 908 272 908 C 298 908 315 878 333 850 C 353 819 374 788 415 788 Z M 563 -1 L 563 696 L 511 696 L 511 82 L 161 696 L 95 696 L 95 0 L 146 0 L 146 614 L 497 -1 Z" unicode="Ñ" />
<glyph horiz-adv-x="650" d="M 336 772 L 376 773 C 339 824 306 878 275 935 L 198 934 C 240 877 287 823 336 772 Z M 326 -9 C 480 -9 586 95 586 356 C 586 602 479 705 327 705 C 173 705 64 602 64 356 C 64 95 172 -9 326 -9 Z M 326 41 C 202 41 120 120 120 356 C 120 575 202 655 326 655 C 449 655 530 575 530 356 C 530 120 449 41 326 41 Z" unicode="Ò" />
<glyph horiz-adv-x="650" d="M 260 773 L 305 772 C 355 823 400 877 442 934 L 361 935 C 331 879 298 825 260 773 Z M 326 -9 C 480 -9 586 95 586 356 C 586 602 479 705 327 705 C 173 705 64 602 64 356 C 64 95 172 -9 326 -9 Z M 326 41 C 202 41 120 120 120 356 C 120 575 202 655 326 655 C 449 655 530 575 530 356 C 530 120 449 41 326 41 Z" unicode="Ó" />
<glyph horiz-adv-x="650" d="M 183 787 C 234 819 282 855 324 893 C 369 854 417 818 467 787 L 493 814 C 441 855 392 897 347 944 L 302 944 C 257 898 209 855 158 814 Z M 326 -9 C 480 -9 586 95 586 356 C 586 602 479 705 327 705 C 173 705 64 602 64 356 C 64 95 172 -9 326 -9 Z M 326 41 C 202 41 120 120 120 356 C 120 575 202 655 326 655 C 449 655 530 575 530 356 C 530 120 449 41 326 41 Z" unicode="Ô" />
<glyph horiz-adv-x="650" d="M 394 788 C 458 788 493 848 493 933 L 493 946 L 445 946 L 445 936 C 445 869 427 834 398 834 C 374 834 358 865 339 893 C 320 924 300 954 257 954 C 193 954 158 893 158 809 L 158 796 L 206 796 L 206 806 C 205 873 224 908 252 908 C 277 908 295 878 313 850 C 332 819 354 788 394 788 Z M 326 -9 C 480 -9 586 95 586 356 C 586 602 479 705 327 705 C 173 705 64 602 64 356 C 64 95 172 -9 326 -9 Z M 326 41 C 202 41 120 120 120 356 C 120 575 202 655 326 655 C 449 655 530 575 530 356 C 530 120 449 41 326 41 Z" unicode="Õ" />
<glyph horiz-adv-x="650" d="M 408 805 C 432 805 449 818 449 845 C 449 873 432 886 408 886 C 382 886 366 873 366 846 C 366 818 382 805 408 805 Z M 243 805 C 267 805 286 818 286 845 C 286 873 268 886 243 886 C 218 886 201 873 201 846 C 201 818 218 805 243 805 Z M 326 -9 C 480 -9 586 95 586 356 C 586 602 479 705 327 705 C 173 705 64 602 64 356 C 64 95 172 -9 326 -9 Z M 326 41 C 202 41 120 120 120 356 C 120 575 202 655 326 655 C 449 655 530 575 530 356 C 530 120 449 41 326 41 Z" unicode="Ö" />
<glyph horiz-adv-x="742" d="M 127 93 L 160 61 L 371 271 L 564 77 L 598 111 L 404 305 L 615 515 L 581 548 L 371 337 L 179 530 L 144 497 L 337 304 Z" unicode="×" />
<glyph horiz-adv-x="650" d="M 120 356 C 120 575 202 655 326 655 C 354 655 379 651 402 643 L 197 86 C 149 132 120 217 120 356 Z M 326 41 C 292 41 262 47 235 60 L 441 622 C 497 580 530 497 530 356 C 530 120 450 41 326 41 Z M 326 -9 C 480 -9 586 95 586 356 C 586 522 537 623 459 671 L 500 784 L 453 784 L 419 690 C 391 700 360 705 327 705 C 173 705 64 602 64 356 C 64 189 108 87 179 34 L 134 -86 L 180 -87 L 217 12 C 250 -2 286 -9 326 -9 Z" unicode="Ø" />
<glyph horiz-adv-x="645" d="M 343 772 L 383 773 C 347 824 313 878 283 935 L 205 934 C 247 877 294 823 343 772 Z M 322 -9 C 477 -9 560 103 560 245 L 560 696 L 504 696 L 504 244 C 504 131 449 41 322 41 C 197 41 141 131 141 244 L 141 696 L 85 696 L 85 245 C 85 103 169 -9 322 -9 Z" unicode="Ù" />
<glyph horiz-adv-x="645" d="M 247 773 L 292 772 C 341 823 387 877 429 934 L 348 935 C 318 879 285 825 247 773 Z M 322 -9 C 477 -9 560 103 560 245 L 560 696 L 504 696 L 504 244 C 504 131 449 41 322 41 C 197 41 141 131 141 244 L 141 696 L 85 696 L 85 245 C 85 103 169 -9 322 -9 Z" unicode="Ú" />
<glyph horiz-adv-x="645" d="M 180 787 C 231 819 278 855 321 893 C 366 854 414 818 464 787 L 490 814 C 438 855 389 897 343 944 L 299 944 C 254 898 206 855 154 814 Z M 322 -9 C 477 -9 560 103 560 245 L 560 696 L 504 696 L 504 244 C 504 131 449 41 322 41 C 197 41 141 131 141 244 L 141 696 L 85 696 L 85 245 C 85 103 169 -9 322 -9 Z" unicode="Û" />
<glyph horiz-adv-x="645" d="M 404 805 C 429 805 446 818 446 845 C 446 873 429 886 404 886 C 379 886 363 873 363 846 C 363 818 379 805 404 805 Z M 240 805 C 264 805 283 818 283 845 C 283 873 265 886 240 886 C 215 886 198 873 198 846 C 198 818 215 805 240 805 Z M 322 -9 C 477 -9 560 103 560 245 L 560 696 L 504 696 L 504 244 C 504 131 449 41 322 41 C 197 41 141 131 141 244 L 141 696 L 85 696 L 85 245 C 85 103 169 -9 322 -9 Z" unicode="Ü" />
<glyph horiz-adv-x="586" d="M 230 773 L 274 772 C 324 823 370 877 412 934 L 330 935 C 301 879 267 825 230 773 Z M 321 0 L 321 266 L 558 696 L 497 696 L 295 318 L 90 696 L 27 696 L 265 266 L 265 0 Z" unicode="Ý" />
<glyph horiz-adv-x="573" d="M 95 0 L 150 0 L 150 139 L 282 139 C 421 139 522 208 522 359 C 522 508 421 575 282 575 L 150 575 L 150 696 L 95 696 Z M 150 526 L 280 526 C 388 526 466 480 466 359 C 466 236 388 187 280 187 L 150 187 Z" unicode="Þ" />
<glyph horiz-adv-x="668" d="M 425 -6 C 523 -6 606 43 606 142 C 606 227 559 268 453 291 C 362 311 319 327 319 389 C 319 458 391 482 496 482 L 496 512 C 496 630 414 704 295 704 C 178 704 95 633 95 516 L 95 0 L 150 0 L 150 508 C 150 600 210 650 296 650 C 372 650 432 612 439 523 C 341 520 264 468 264 382 C 264 301 310 266 421 242 C 511 222 550 201 550 137 C 550 70 494 45 431 45 C 372 45 314 69 274 105 L 241 61 C 286 18 357 -6 425 -6 Z" unicode="ß" />
<glyph horiz-adv-x="530" d="M 256 599 L 296 600 C 259 650 226 704 195 761 L 118 760 C 160 703 206 649 256 599 Z M 225 38 C 155 38 111 76 111 142 C 111 209 157 242 221 242 L 371 242 L 371 110 C 334 68 282 38 225 38 Z M 503 -1 L 503 49 C 454 33 425 55 425 108 L 425 368 C 425 472 355 532 254 532 C 164 532 104 492 71 416 L 117 391 C 145 457 183 484 249 484 C 327 484 371 440 371 359 L 371 288 L 218 288 C 121 288 57 231 57 137 C 57 43 127 -10 213 -10 C 279 -10 343 25 387 73 C 388 16 441 -15 503 -1 Z" unicode="à" />
<glyph horiz-adv-x="530" d="M 188 600 L 233 599 C 283 649 328 703 370 760 L 289 761 C 259 705 226 651 188 600 Z M 225 38 C 155 38 111 76 111 142 C 111 209 157 242 221 242 L 371 242 L 371 110 C 334 68 282 38 225 38 Z M 503 -1 L 503 49 C 454 33 425 55 425 108 L 425 368 C 425 472 355 532 254 532 C 164 532 104 492 71 416 L 117 391 C 145 457 183 484 249 484 C 327 484 371 440 371 359 L 371 288 L 218 288 C 121 288 57 231 57 137 C 57 43 127 -10 213 -10 C 279 -10 343 25 387 73 C 388 16 441 -15 503 -1 Z" unicode="á" />
<glyph horiz-adv-x="530" d="M 110 613 C 161 645 208 681 251 720 C 296 680 343 644 394 613 L 420 640 C 368 681 319 724 273 770 L 229 770 C 184 725 136 681 84 640 Z M 225 38 C 155 38 111 76 111 142 C 111 209 157 242 221 242 L 371 242 L 371 110 C 334 68 282 38 225 38 Z M 503 -1 L 503 49 C 454 33 425 55 425 108 L 425 368 C 425 472 355 532 254 532 C 164 532 104 492 71 416 L 117 391 C 145 457 183 484 249 484 C 327 484 371 440 371 359 L 371 288 L 218 288 C 121 288 57 231 57 137 C 57 43 127 -10 213 -10 C 279 -10 343 25 387 73 C 388 16 441 -15 503 -1 Z" unicode="â" />
<glyph horiz-adv-x="530" d="M 318 614 C 382 614 417 674 417 759 L 417 772 L 369 772 L 369 762 C 369 695 351 661 322 661 C 298 661 282 691 263 720 C 244 750 224 780 181 780 C 117 780 81 720 81 635 L 81 622 L 130 622 L 130 632 C 129 699 147 734 176 734 C 201 734 218 704 237 676 C 256 645 277 614 318 614 Z M 225 38 C 155 38 111 76 111 142 C 111 209 157 242 221 242 L 371 242 L 371 110 C 334 68 282 38 225 38 Z M 503 -1 L 503 49 C 454 33 425 55 425 108 L 425 368 C 425 472 355 532 254 532 C 164 532 104 492 71 416 L 117 391 C 145 457 183 484 249 484 C 327 484 371 440 371 359 L 371 288 L 218 288 C 121 288 57 231 57 137 C 57 43 127 -10 213 -10 C 279 -10 343 25 387 73 C 388 16 441 -15 503 -1 Z" unicode="ã" />
<glyph horiz-adv-x="530" d="M 330 631 C 355 631 372 644 372 671 C 372 699 355 712 330 712 C 305 712 289 699 289 672 C 289 644 305 631 330 631 Z M 166 631 C 190 631 208 644 208 671 C 208 699 191 712 166 712 C 141 712 124 699 124 672 C 124 644 141 631 166 631 Z M 225 38 C 155 38 111 76 111 142 C 111 209 157 242 221 242 L 371 242 L 371 110 C 334 68 282 38 225 38 Z M 503 -1 L 503 49 C 454 33 425 55 425 108 L 425 368 C 425 472 355 532 254 532 C 164 532 104 492 71 416 L 117 391 C 145 457 183 484 249 484 C 327 484 371 440 371 359 L 371 288 L 218 288 C 121 288 57 231 57 137 C 57 43 127 -10 213 -10 C 279 -10 343 25 387 73 C 388 16 441 -15 503 -1 Z" unicode="ä" />
<glyph horiz-adv-x="530" d="M 243 589 C 318 589 368 636 368 724 C 368 812 318 861 243 861 C 168 861 118 812 118 724 C 118 636 168 589 243 589 Z M 243 627 C 190 627 160 661 160 724 C 160 786 190 822 243 822 C 296 822 326 786 326 724 C 326 661 296 627 243 627 Z M 225 38 C 155 38 111 76 111 142 C 111 209 157 242 221 242 L 371 242 L 371 110 C 334 68 282 38 225 38 Z M 503 -1 L 503 49 C 454 33 425 55 425 108 L 425 368 C 425 472 355 532 254 532 C 164 532 104 492 71 416 L 117 391 C 145 457 183 484 249 484 C 327 484 371 440 371 359 L 371 288 L 218 288 C 121 288 57 231 57 137 C 57 43 127 -10 213 -10 C 279 -10 343 25 387 73 C 388 16 441 -15 503 -1 Z" unicode="å" />
<glyph horiz-adv-x="823" d="M 576 484 C 650 484 708 430 708 304 L 708 300 L 426 300 C 434 427 487 484 576 484 Z M 225 38 C 155 38 111 76 111 142 C 111 209 157 242 221 242 L 371 242 L 371 110 C 334 68 282 38 225 38 Z M 586 -9 C 652 -9 716 19 754 73 L 716 108 C 684 63 641 41 586 41 C 483 41 428 110 425 253 L 764 253 L 764 298 C 764 450 681 532 576 532 C 503 532 446 502 410 441 C 385 499 328 532 254 532 C 164 532 104 492 71 416 L 117 391 C 145 457 183 484 249 484 C 327 484 371 439 371 359 L 371 288 L 218 288 C 121 288 57 231 57 137 C 57 43 127 -10 213 -10 C 288 -10 355 30 410 88 C 446 24 507 -9 586 -9 Z" unicode="æ" />
<glyph horiz-adv-x="513" d="M 268 -185 C 325 -185 379 -160 379 -105 C 379 -61 341 -34 289 -27 L 290 -9 C 372 -4 434 42 461 135 L 410 151 C 386 70 340 41 274 41 C 178 41 122 106 122 262 C 122 416 178 482 274 482 C 340 482 386 452 410 371 L 461 387 C 432 486 366 532 276 532 C 148 532 65 444 65 262 C 65 89 137 3 250 -8 L 248 -55 C 309 -58 329 -74 329 -105 C 329 -134 306 -147 269 -147 C 228 -147 205 -133 196 -93 L 154 -100 C 166 -157 209 -185 268 -185 Z" unicode="ç" />
<glyph horiz-adv-x="533" d="M 289 599 L 328 600 C 292 650 258 704 228 761 L 150 760 C 192 703 239 649 289 599 Z M 277 484 C 356 484 417 430 418 304 L 418 300 L 123 300 C 132 427 185 484 277 484 Z M 462 73 L 426 108 C 392 62 346 41 289 41 C 183 41 125 110 122 253 L 474 253 L 474 298 C 474 450 387 532 278 532 C 148 532 65 444 65 263 C 65 84 150 -9 289 -9 C 358 -9 426 18 462 73 Z" unicode="è" />
<glyph horiz-adv-x="533" d="M 205 600 L 250 599 C 300 649 346 703 387 760 L 306 761 C 276 705 243 651 205 600 Z M 277 484 C 356 484 417 430 418 304 L 418 300 L 123 300 C 132 427 185 484 277 484 Z M 462 73 L 426 108 C 392 62 346 41 289 41 C 183 41 125 110 122 253 L 474 253 L 474 298 C 474 450 387 532 278 532 C 148 532 65 444 65 263 C 65 84 150 -9 289 -9 C 358 -9 426 18 462 73 Z" unicode="é" />
<glyph horiz-adv-x="533" d="M 125 613 C 176 645 224 681 266 720 C 311 680 359 644 410 613 L 435 640 C 383 681 334 724 289 770 L 244 770 C 199 725 151 681 100 640 Z M 277 484 C 356 484 417 430 418 304 L 418 300 L 123 300 C 132 427 185 484 277 484 Z M 462 73 L 426 108 C 392 62 346 41 289 41 C 183 41 125 110 122 253 L 474 253 L 474 298 C 474 450 387 532 278 532 C 148 532 65 444 65 263 C 65 84 150 -9 289 -9 C 358 -9 426 18 462 73 Z" unicode="ê" />
<glyph horiz-adv-x="533" d="M 350 631 C 374 631 391 644 391 671 C 391 699 374 712 350 712 C 324 712 308 699 308 672 C 308 644 324 631 350 631 Z M 185 631 C 209 631 228 644 228 671 C 228 699 210 712 185 712 C 161 712 143 699 143 672 C 143 644 161 631 185 631 Z M 277 484 C 356 484 417 430 418 304 L 418 300 L 123 300 C 132 427 185 484 277 484 Z M 462 73 L 426 108 C 392 62 346 41 289 41 C 183 41 125 110 122 253 L 474 253 L 474 298 C 474 450 387 532 278 532 C 148 532 65 444 65 263 C 65 84 150 -9 289 -9 C 358 -9 426 18 462 73 Z" unicode="ë" />
<glyph horiz-adv-x="266" d="M 150 599 L 190 600 C 153 650 120 704 89 761 L 12 760 C 54 703 101 649 150 599 Z M 95 0 L 150 0 L 150 522 L 95 522 Z" unicode="ì" />
<glyph horiz-adv-x="266" d="M 84 600 L 129 599 C 179 649 225 703 266 760 L 185 761 C 155 705 122 651 84 600 Z M 95 0 L 150 0 L 150 522 L 95 522 Z" unicode="í" />
<glyph horiz-adv-x="266" d="M -13 613 C 38 645 85 681 128 720 C 173 680 221 644 271 613 L 297 640 C 245 681 196 724 150 770 L 106 770 C 61 725 13 681 -39 640 Z M 95 0 L 150 0 L 150 522 L 95 522 Z" unicode="î" />
<glyph horiz-adv-x="266" d="M 216 631 C 241 631 258 644 258 671 C 258 699 241 712 216 712 C 191 712 175 699 175 672 C 175 644 191 631 216 631 Z M 52 631 C 76 631 95 644 95 671 C 95 699 77 712 52 712 C 27 712 10 699 10 672 C 10 644 27 631 52 631 Z M 95 0 L 150 0 L 150 522 L 95 522 Z" unicode="ï" />
<glyph horiz-adv-x="586" d="M 291 -10 C 419 -10 495 74 495 252 L 494 330 C 492 458 469 540 427 597 L 524 644 L 524 688 L 399 627 C 352 671 287 694 204 712 L 192 669 C 260 657 313 636 353 605 L 220 540 L 220 496 L 383 576 C 424 529 443 465 443 383 L 443 351 C 421 400 362 436 275 436 C 163 436 86 356 86 224 C 86 71 163 -10 291 -10 Z M 292 40 C 189 40 143 103 143 223 C 143 335 191 385 292 385 C 391 385 438 338 438 225 C 438 106 393 40 292 40 Z" unicode="ð" />
<glyph horiz-adv-x="566" d="M 368 614 C 432 614 466 674 466 759 L 466 772 L 419 772 L 419 762 C 419 695 400 661 372 661 C 348 661 331 691 313 720 C 294 750 273 780 231 780 C 167 780 131 720 131 635 L 131 622 L 180 622 L 180 632 C 179 699 197 734 226 734 C 251 734 268 704 287 676 C 306 645 327 614 368 614 Z M 150 0 L 150 367 C 187 433 242 479 309 479 C 378 479 422 432 422 346 L 422 0 L 478 0 L 478 358 C 478 464 419 532 324 532 C 249 532 195 490 150 419 L 150 522 L 95 522 L 95 0 Z" unicode="ñ" />
<glyph horiz-adv-x="541" d="M 293 599 L 332 600 C 296 650 262 704 232 761 L 154 760 C 196 703 243 649 293 599 Z M 270 -9 C 393 -9 476 76 476 260 C 476 444 392 532 271 532 C 147 532 65 444 65 261 C 65 76 147 -9 270 -9 Z M 270 41 C 177 41 122 106 122 261 C 122 413 177 482 270 482 C 364 482 419 413 419 260 C 419 106 364 41 270 41 Z" unicode="ò" />
<glyph horiz-adv-x="541" d="M 206 600 L 251 599 C 301 649 347 703 388 760 L 307 761 C 277 705 244 651 206 600 Z M 270 -9 C 393 -9 476 76 476 260 C 476 444 392 532 271 532 C 147 532 65 444 65 261 C 65 76 147 -9 270 -9 Z M 270 41 C 177 41 122 106 122 261 C 122 413 177 482 270 482 C 364 482 419 413 419 260 C 419 106 364 41 270 41 Z" unicode="ó" />
<glyph horiz-adv-x="541" d="M 129 613 C 180 645 228 681 270 720 C 315 680 363 644 414 613 L 439 640 C 387 681 338 724 293 770 L 248 770 C 203 725 155 681 104 640 Z M 270 -9 C 393 -9 476 76 476 260 C 476 444 392 532 271 532 C 147 532 65 444 65 261 C 65 76 147 -9 270 -9 Z M 270 41 C 177 41 122 106 122 261 C 122 413 177 482 270 482 C 364 482 419 413 419 260 C 419 106 364 41 270 41 Z" unicode="ô" />
<glyph horiz-adv-x="541" d="M 340 614 C 404 614 439 674 439 759 L 439 772 L 391 772 L 391 762 C 391 695 373 661 345 661 C 320 661 304 691 286 720 C 266 750 246 780 203 780 C 139 780 104 720 104 635 L 104 622 L 152 622 L 152 632 C 151 699 170 734 198 734 C 224 734 241 704 259 676 C 278 645 300 614 340 614 Z M 270 -9 C 393 -9 476 76 476 260 C 476 444 392 532 271 532 C 147 532 65 444 65 261 C 65 76 147 -9 270 -9 Z M 270 41 C 177 41 122 106 122 261 C 122 413 177 482 270 482 C 364 482 419 413 419 260 C 419 106 364 41 270 41 Z" unicode="õ" />
<glyph horiz-adv-x="541" d="M 354 631 C 378 631 395 644 395 671 C 395 699 378 712 354 712 C 328 712 312 699 312 672 C 312 644 328 631 354 631 Z M 189 631 C 213 631 232 644 232 671 C 232 699 214 712 189 712 C 165 712 147 699 147 672 C 147 644 165 631 189 631 Z M 270 -9 C 393 -9 476 76 476 260 C 476 444 392 532 271 532 C 147 532 65 444 65 261 C 65 76 147 -9 270 -9 Z M 270 41 C 177 41 122 106 122 261 C 122 413 177 482 270 482 C 364 482 419 413 419 260 C 419 106 364 41 270 41 Z" unicode="ö" />
<glyph horiz-adv-x="742" d="M 370 474 C 396 474 417 489 417 523 C 417 558 397 573 370 573 C 343 573 324 558 324 523 C 324 489 343 474 370 474 Z M 101 276 L 641 276 L 641 333 L 101 333 Z M 370 38 C 396 38 417 51 417 86 C 417 122 397 136 370 136 C 343 136 324 122 324 86 C 324 51 343 38 370 38 Z" unicode="÷" />
<glyph horiz-adv-x="541" d="M 122 261 C 122 413 177 482 270 482 C 298 482 322 476 343 463 L 169 83 C 138 118 122 176 122 261 Z M 270 41 C 245 41 222 46 202 56 L 376 433 C 404 397 419 340 419 260 C 419 106 364 41 270 41 Z M 270 -9 C 393 -9 476 76 476 260 C 476 368 447 442 399 485 L 456 610 L 411 610 L 364 510 C 337 524 306 532 271 532 C 147 532 65 444 65 261 C 65 150 95 75 145 32 L 91 -87 L 137 -87 L 181 9 C 208 -3 238 -9 270 -9 Z" unicode="ø" />
<glyph horiz-adv-x="566" d="M 283 599 L 322 600 C 286 650 252 704 222 761 L 144 760 C 186 703 233 649 283 599 Z M 419 522 L 419 155 C 382 89 327 44 259 44 C 190 44 146 90 146 177 L 146 522 L 90 522 L 90 165 C 90 58 149 -9 244 -9 C 320 -9 373 33 419 104 L 419 0 L 475 0 L 475 522 Z" unicode="ù" />
<glyph horiz-adv-x="566" d="M 231 600 L 275 599 C 325 649 371 703 413 760 L 331 761 C 302 705 268 651 231 600 Z M 419 522 L 419 155 C 382 89 327 44 259 44 C 190 44 146 90 146 177 L 146 522 L 90 522 L 90 165 C 90 58 149 -9 244 -9 C 320 -9 373 33 419 104 L 419 0 L 475 0 L 475 522 Z" unicode="ú" />
<glyph horiz-adv-x="566" d="M 141 613 C 192 645 240 681 283 720 C 327 680 375 644 426 613 L 451 640 C 399 681 351 724 305 770 L 260 770 C 215 725 168 681 116 640 Z M 419 522 L 419 155 C 382 89 327 44 259 44 C 190 44 146 90 146 177 L 146 522 L 90 522 L 90 165 C 90 58 149 -9 244 -9 C 320 -9 373 33 419 104 L 419 0 L 475 0 L 475 522 Z" unicode="û" />
<glyph horiz-adv-x="566" d="M 366 631 C 390 631 408 644 408 671 C 408 699 390 712 366 712 C 340 712 324 699 324 672 C 324 644 340 631 366 631 Z M 201 631 C 226 631 244 644 244 671 C 244 699 227 712 201 712 C 177 712 160 699 160 672 C 160 644 177 631 201 631 Z M 419 522 L 419 155 C 382 89 327 44 259 44 C 190 44 146 90 146 177 L 146 522 L 90 522 L 90 165 C 90 58 149 -9 244 -9 C 320 -9 373 33 419 104 L 419 0 L 475 0 L 475 522 Z" unicode="ü" />
<glyph horiz-adv-x="497" d="M 173 600 L 217 599 C 267 649 313 703 355 760 L 273 761 C 244 705 210 651 173 600 Z M 110 -180 C 178 -180 227 -143 259 -49 L 460 522 L 403 522 L 252 65 L 99 522 L 40 522 L 224 -6 L 218 -22 C 197 -88 173 -130 113 -130 C 96 -130 72 -127 53 -122 L 44 -172 C 66 -178 88 -180 110 -180 Z" unicode="ý" />
<glyph horiz-adv-x="558" d="M 277 41 C 225 42 185 55 150 79 L 150 380 C 189 442 239 479 297 479 C 377 479 437 425 437 270 C 437 101 368 42 277 41 Z M 286 -9 C 397 -9 493 69 493 270 C 493 448 415 532 313 532 C 239 532 187 485 150 431 L 150 716 L 95 716 L 95 -174 L 150 -174 L 150 27 C 184 5 228 -9 286 -9 Z" unicode="þ" />
<glyph horiz-adv-x="497" d="M 330 631 C 355 631 372 644 372 671 C 372 699 355 712 330 712 C 305 712 289 699 289 672 C 289 644 305 631 330 631 Z M 166 631 C 190 631 208 644 208 671 C 208 699 191 712 166 712 C 141 712 124 699 124 672 C 124 644 141 631 166 631 Z M 110 -180 C 178 -180 227 -143 259 -49 L 460 522 L 403 522 L 252 65 L 99 522 L 40 522 L 224 -6 L 218 -22 C 197 -88 173 -130 113 -130 C 96 -130 72 -127 53 -122 L 44 -172 C 66 -178 88 -180 110 -180 Z" unicode="ÿ" />
<glyph horiz-adv-x="620" d="M 150 832 L 472 832 L 472 878 L 150 878 Z M 432 269 L 187 269 L 309 633 Z M 522 0 L 581 0 L 337 697 L 284 697 L 40 0 L 97 0 L 171 221 L 448 221 Z" unicode="Ā" />
<glyph horiz-adv-x="530" d="M 103 660 L 424 660 L 424 705 L 103 705 Z M 225 38 C 155 38 111 76 111 142 C 111 209 157 242 221 242 L 371 242 L 371 110 C 334 68 282 38 225 38 Z M 503 -1 L 503 49 C 454 33 425 55 425 108 L 425 368 C 425 472 355 532 254 532 C 164 532 104 492 71 416 L 117 391 C 145 457 183 484 249 484 C 327 484 371 440 371 359 L 371 288 L 218 288 C 121 288 57 231 57 137 C 57 43 127 -10 213 -10 C 279 -10 343 25 387 73 C 388 16 441 -15 503 -1 Z" unicode="ā" />
<glyph horiz-adv-x="620" d="M 311 779 C 414 779 485 827 486 943 L 439 943 C 438 852 393 818 311 818 C 229 818 184 852 183 943 L 136 943 C 137 827 208 779 311 779 Z M 432 269 L 187 269 L 309 633 Z M 522 0 L 581 0 L 337 697 L 284 697 L 40 0 L 97 0 L 171 221 L 448 221 Z" unicode="Ă" />
<glyph horiz-adv-x="530" d="M 263 606 C 366 606 437 653 438 769 L 391 769 C 390 678 346 644 263 644 C 181 644 136 678 135 769 L 88 769 C 89 653 161 606 263 606 Z M 225 38 C 155 38 111 76 111 142 C 111 209 157 242 221 242 L 371 242 L 371 110 C 334 68 282 38 225 38 Z M 503 -1 L 503 49 C 454 33 425 55 425 108 L 425 368 C 425 472 355 532 254 532 C 164 532 104 492 71 416 L 117 391 C 145 457 183 484 249 484 C 327 484 371 440 371 359 L 371 288 L 218 288 C 121 288 57 231 57 137 C 57 43 127 -10 213 -10 C 279 -10 343 25 387 73 C 388 16 441 -15 503 -1 Z" unicode="ă" />
<glyph horiz-adv-x="620" d="M 432 269 L 187 269 L 309 633 Z M 618 -177 L 617 -133 C 600 -138 570 -142 551 -142 C 503 -142 473 -120 473 -83 C 473 -53 489 -24 522 1 L 522 0 L 581 0 L 337 697 L 284 697 L 40 0 L 97 0 L 171 221 L 448 221 L 514 25 C 469 2 430 -43 430 -97 C 430 -151 479 -185 544 -185 C 568 -185 598 -181 618 -177 Z" unicode="Ą" />
<glyph horiz-adv-x="530" d="M 225 38 C 155 38 111 76 111 142 C 111 209 157 242 221 242 L 371 242 L 371 110 C 334 68 282 38 225 38 Z M 541 -177 L 540 -133 C 522 -138 493 -142 474 -142 C 426 -142 395 -120 395 -83 C 395 -53 411 -25 444 0 C 461 -5 482 -6 503 -1 L 503 49 C 454 33 425 55 425 108 L 425 368 C 425 472 355 532 254 532 C 164 532 104 492 71 416 L 117 391 C 145 457 183 484 249 484 C 327 484 371 440 371 359 L 371 288 L 218 288 C 121 288 57 231 57 137 C 57 43 127 -10 213 -10 C 279 -10 343 25 387 73 C 387 50 399 28 418 13 C 381 -11 353 -51 353 -97 C 353 -151 401 -185 466 -185 C 491 -185 520 -181 541 -177 Z" unicode="ą" />
<glyph horiz-adv-x="624" d="M 255 773 L 300 772 C 350 823 395 877 437 934 L 356 935 C 326 879 293 825 255 773 Z M 324 -9 C 461 -9 544 72 560 188 L 507 199 C 492 102 435 41 324 41 C 202 41 120 123 120 355 C 120 572 202 655 324 655 C 429 655 488 598 506 491 L 560 503 C 540 627 457 705 325 705 C 173 705 64 599 64 355 C 64 99 172 -9 324 -9 Z" unicode="Ć" />
<glyph horiz-adv-x="513" d="M 214 600 L 259 599 C 309 649 355 703 396 760 L 315 761 C 286 705 252 651 214 600 Z M 275 -9 C 365 -9 432 37 461 135 L 410 151 C 386 70 340 41 274 41 C 178 41 122 106 122 262 C 122 416 178 482 274 482 C 340 482 386 452 410 371 L 461 387 C 432 486 366 532 276 532 C 148 532 65 444 65 262 C 65 76 148 -9 275 -9 Z" unicode="ć" />
<glyph horiz-adv-x="624" d="M 188 787 C 239 819 287 855 329 893 C 374 854 422 818 473 787 L 498 814 C 446 855 397 897 352 944 L 307 944 C 262 898 214 855 163 814 Z M 324 -9 C 461 -9 544 72 560 188 L 507 199 C 492 102 435 41 324 41 C 202 41 120 123 120 355 C 120 572 202 655 324 655 C 429 655 488 598 506 491 L 560 503 C 540 627 457 705 325 705 C 173 705 64 599 64 355 C 64 99 172 -9 324 -9 Z" unicode="Ĉ" />
<glyph horiz-adv-x="513" d="M 125 613 C 176 645 224 681 266 720 C 311 680 359 644 410 613 L 435 640 C 383 681 334 724 289 770 L 244 770 C 199 725 151 681 100 640 Z M 275 -9 C 365 -9 432 37 461 135 L 410 151 C 386 70 340 41 274 41 C 178 41 122 106 122 262 C 122 416 178 482 274 482 C 340 482 386 452 410 371 L 461 387 C 432 486 366 532 276 532 C 148 532 65 444 65 262 C 65 76 148 -9 275 -9 Z" unicode="ĉ" />
<glyph horiz-adv-x="624" d="M 330 805 C 355 805 372 818 372 845 C 372 873 356 886 330 886 C 306 886 289 873 289 846 C 289 818 306 805 330 805 Z M 324 -9 C 461 -9 544 72 560 188 L 507 199 C 492 102 435 41 324 41 C 202 41 120 123 120 355 C 120 572 202 655 324 655 C 429 655 488 598 506 491 L 560 503 C 540 627 457 705 325 705 C 173 705 64 599 64 355 C 64 99 172 -9 324 -9 Z" unicode="Ċ" />
<glyph horiz-adv-x="513" d="M 257 631 C 282 631 299 644 299 671 C 299 699 283 712 257 712 C 233 712 215 699 215 672 C 215 644 233 631 257 631 Z M 275 -9 C 365 -9 432 37 461 135 L 410 151 C 386 70 340 41 274 41 C 178 41 122 106 122 262 C 122 416 178 482 274 482 C 340 482 386 452 410 371 L 461 387 C 432 486 366 532 276 532 C 148 532 65 444 65 262 C 65 76 148 -9 275 -9 Z" unicode="ċ" />
<glyph horiz-adv-x="624" d="M 309 784 L 354 784 C 398 831 447 874 498 913 L 473 941 C 423 910 375 873 331 834 C 286 873 238 909 188 941 L 163 913 C 213 874 262 830 309 784 Z M 324 -9 C 461 -9 544 72 560 188 L 507 199 C 492 102 435 41 324 41 C 202 41 120 123 120 355 C 120 572 202 655 324 655 C 429 655 488 598 506 491 L 560 503 C 540 627 457 705 325 705 C 173 705 64 599 64 355 C 64 99 172 -9 324 -9 Z" unicode="Č" />
<glyph horiz-adv-x="513" d="M 236 610 L 280 610 C 325 658 374 700 425 739 L 399 767 C 350 736 302 699 258 661 C 212 699 165 735 115 767 L 89 739 C 140 700 189 657 236 610 Z M 275 -9 C 365 -9 432 37 461 135 L 410 151 C 386 70 340 41 274 41 C 178 41 122 106 122 262 C 122 416 178 482 274 482 C 340 482 386 452 410 371 L 461 387 C 432 486 366 532 276 532 C 148 532 65 444 65 262 C 65 76 148 -9 275 -9 Z" unicode="č" />
<glyph horiz-adv-x="655" d="M 311 784 L 356 784 C 400 831 449 874 500 913 L 475 941 C 425 910 377 873 333 834 C 288 873 240 909 190 941 L 165 913 C 215 874 264 830 311 784 Z M 95 0 L 307 0 C 467 0 591 95 591 352 C 591 600 468 696 308 696 L 95 696 Z M 150 50 L 150 647 L 307 647 C 439 647 536 569 536 352 C 536 123 439 50 307 50 Z" unicode="Ď" />
<glyph horiz-adv-x="558" d="M 527 562 L 566 562 C 595 612 616 666 628 747 L 568 747 C 561 671 550 630 527 562 Z M 280 482 C 330 481 373 467 408 443 L 408 142 C 370 80 319 44 261 44 C 181 44 121 98 121 252 C 121 422 190 481 280 482 Z M 272 532 C 161 532 65 453 65 252 C 65 74 143 -9 245 -9 C 320 -9 373 37 410 91 L 410 0 L 463 0 L 463 716 L 408 716 L 408 495 C 372 517 327 532 272 532 Z" unicode="ď" />
<glyph horiz-adv-x="659" d="M 310 0 C 471 0 595 95 595 352 C 595 600 472 696 311 696 L 98 696 L 98 403 L 11 403 L 11 353 L 98 353 L 98 0 Z M 153 50 L 153 353 L 331 353 L 331 403 L 153 403 L 153 647 L 310 647 C 442 647 539 569 539 352 C 539 123 442 50 310 50 Z" unicode="Đ" />
<glyph horiz-adv-x="558" d="M 280 461 C 330 460 373 447 408 423 L 408 142 C 370 80 319 44 261 44 C 181 44 121 96 121 242 C 121 403 190 460 280 461 Z M 410 91 L 410 0 L 463 0 L 463 574 L 550 574 L 550 619 L 463 619 L 463 716 L 408 716 L 408 619 L 243 619 L 243 574 L 408 574 L 408 475 C 372 497 327 511 272 511 C 161 511 65 436 65 242 C 65 70 143 -9 245 -9 C 320 -9 373 38 410 91 Z" unicode="đ" />
<glyph horiz-adv-x="569" d="M 132 832 L 453 832 L 453 878 L 132 878 Z M 95 0 L 513 0 L 513 49 L 150 49 L 150 352 L 474 352 L 474 401 L 150 401 L 150 647 L 513 647 L 513 696 L 95 696 Z" unicode="Ē" />
<glyph horiz-adv-x="533" d="M 107 659 L 428 659 L 428 704 L 107 704 Z M 277 484 C 356 484 417 430 418 304 L 418 300 L 123 300 C 132 427 185 484 277 484 Z M 462 73 L 426 108 C 392 62 346 41 289 41 C 183 41 125 110 122 253 L 474 253 L 474 298 C 474 450 387 532 278 532 C 148 532 65 444 65 263 C 65 84 150 -9 289 -9 C 358 -9 426 18 462 73 Z" unicode="ē" />
<glyph horiz-adv-x="569" d="M 293 779 C 395 779 466 827 467 943 L 421 943 C 420 852 375 818 293 818 C 210 818 166 852 165 943 L 118 943 C 119 827 190 779 293 779 Z M 95 0 L 513 0 L 513 49 L 150 49 L 150 352 L 474 352 L 474 401 L 150 401 L 150 647 L 513 647 L 513 696 L 95 696 Z" unicode="Ĕ" />
<glyph horiz-adv-x="533" d="M 267 606 C 370 606 441 653 442 769 L 395 769 C 394 678 350 644 267 644 C 185 644 140 678 139 769 L 92 769 C 93 653 165 606 267 606 Z M 277 484 C 356 484 417 430 418 304 L 418 300 L 123 300 C 132 427 185 484 277 484 Z M 462 73 L 426 108 C 392 62 346 41 289 41 C 183 41 125 110 122 253 L 474 253 L 474 298 C 474 450 387 532 278 532 C 148 532 65 444 65 263 C 65 84 150 -9 289 -9 C 358 -9 426 18 462 73 Z" unicode="ĕ" />
<glyph horiz-adv-x="569" d="M 293 805 C 317 805 334 818 334 845 C 334 873 318 886 293 886 C 268 886 251 873 251 846 C 251 818 268 805 293 805 Z M 95 0 L 513 0 L 513 49 L 150 49 L 150 352 L 474 352 L 474 401 L 150 401 L 150 647 L 513 647 L 513 696 L 95 696 Z" unicode="Ė" />
<glyph horiz-adv-x="533" d="M 267 631 C 292 631 309 644 309 671 C 309 699 293 712 267 712 C 243 712 226 699 226 672 C 226 644 243 631 267 631 Z M 277 484 C 356 484 417 430 418 304 L 418 300 L 123 300 C 132 427 185 484 277 484 Z M 462 73 L 426 108 C 392 62 346 41 289 41 C 183 41 125 110 122 253 L 474 253 L 474 298 C 474 450 387 532 278 532 C 148 532 65 444 65 263 C 65 84 150 -9 289 -9 C 358 -9 426 18 462 73 Z" unicode="ė" />
<glyph horiz-adv-x="569" d="M 489 -177 L 488 -133 C 471 -138 441 -142 422 -142 C 374 -142 343 -120 343 -83 C 343 -53 359 -25 392 0 L 513 0 L 513 49 L 150 49 L 150 352 L 474 352 L 474 401 L 150 401 L 150 647 L 513 647 L 513 696 L 95 696 L 95 0 L 348 0 C 321 -24 301 -58 301 -97 C 301 -151 350 -185 415 -185 C 439 -185 468 -181 489 -177 Z" unicode="Ę" />
<glyph horiz-adv-x="533" d="M 277 484 C 356 484 417 430 418 304 L 418 300 L 123 300 C 132 427 185 484 277 484 Z M 457 -177 L 456 -133 C 439 -138 410 -142 390 -142 C 342 -142 312 -120 312 -83 C 312 -52 329 -23 363 2 C 404 15 439 39 462 73 L 426 108 C 392 62 346 41 289 41 C 183 41 125 110 122 253 L 474 253 L 474 298 C 474 450 387 532 278 532 C 148 532 65 444 65 263 C 65 84 150 -9 289 -9 C 295 -9 302 -9 308 -8 C 285 -32 269 -62 269 -97 C 269 -151 318 -185 383 -185 C 408 -185 437 -181 457 -177 Z" unicode="ę" />
<glyph horiz-adv-x="569" d="M 271 784 L 316 784 C 361 831 410 874 460 913 L 435 941 C 385 910 337 873 294 834 C 248 873 200 909 150 941 L 125 913 C 176 874 225 830 271 784 Z M 95 0 L 513 0 L 513 49 L 150 49 L 150 352 L 474 352 L 474 401 L 150 401 L 150 647 L 513 647 L 513 696 L 95 696 Z" unicode="Ě" />
<glyph horiz-adv-x="533" d="M 244 610 L 289 610 C 333 658 382 700 433 739 L 408 767 C 358 736 310 699 266 661 C 221 699 173 735 123 767 L 98 739 C 148 700 197 657 244 610 Z M 277 484 C 356 484 417 430 418 304 L 418 300 L 123 300 C 132 427 185 484 277 484 Z M 462 73 L 426 108 C 392 62 346 41 289 41 C 183 41 125 110 122 253 L 474 253 L 474 298 C 474 450 387 532 278 532 C 148 532 65 444 65 263 C 65 84 150 -9 289 -9 C 358 -9 426 18 462 73 Z" unicode="ě" />
<glyph horiz-adv-x="637" d="M 183 787 C 234 819 282 855 324 893 C 369 854 417 818 467 787 L 493 814 C 441 855 392 897 347 944 L 302 944 C 257 898 209 855 158 814 Z M 575 291 L 575 352 L 317 352 L 317 302 L 519 302 L 519 294 C 519 104 446 41 325 41 C 201 41 120 123 120 356 C 120 573 201 655 324 655 C 425 655 479 605 499 524 L 554 539 C 528 639 452 705 325 705 C 171 705 64 600 64 356 C 64 99 171 -9 325 -9 C 473 -9 575 76 575 291 Z" unicode="Ĝ" />
<glyph horiz-adv-x="563" d="M 149 613 C 200 645 248 681 291 720 C 335 680 383 644 434 613 L 459 640 C 408 681 359 724 313 770 L 268 770 C 224 725 176 681 124 640 Z M 273 254 C 204 254 150 291 150 367 C 150 443 205 480 274 480 C 343 480 397 443 397 367 C 397 290 343 254 273 254 Z M 521 -23 C 521 54 467 96 379 96 L 217 96 C 157 96 129 119 129 158 C 129 186 144 211 182 230 C 207 216 238 208 271 208 C 377 208 449 275 449 369 C 449 419 428 461 392 489 C 423 483 459 479 504 477 L 504 522 L 317 522 C 303 525 289 526 273 526 C 173 526 100 461 100 369 C 100 319 120 277 155 248 C 110 231 81 190 81 143 C 81 102 104 69 149 53 C 91 26 62 -12 62 -63 C 62 -131 125 -187 272 -187 C 426 -187 521 -122 521 -23 Z M 282 -140 C 155 -140 114 -101 114 -52 C 114 -15 136 16 187 44 C 196 43 206 43 215 43 L 379 43 C 435 43 470 20 470 -29 C 470 -98 399 -140 282 -140 Z" unicode="ĝ" />
<glyph horiz-adv-x="637" d="M 325 779 C 428 779 499 827 500 943 L 453 943 C 452 852 408 818 325 818 C 243 818 198 852 197 943 L 150 943 C 151 827 223 779 325 779 Z M 575 291 L 575 352 L 317 352 L 317 302 L 519 302 L 519 294 C 519 104 446 41 325 41 C 201 41 120 123 120 356 C 120 573 201 655 324 655 C 425 655 479 605 499 524 L 554 539 C 528 639 452 705 325 705 C 171 705 64 600 64 356 C 64 99 171 -9 325 -9 C 473 -9 575 76 575 291 Z" unicode="Ğ" />
<glyph horiz-adv-x="563" d="M 292 606 C 394 606 465 653 466 769 L 420 769 C 419 678 374 644 292 644 C 209 644 165 678 164 769 L 117 769 C 118 653 189 606 292 606 Z M 273 254 C 204 254 150 291 150 367 C 150 443 205 480 274 480 C 343 480 397 443 397 367 C 397 290 343 254 273 254 Z M 521 -23 C 521 54 467 96 379 96 L 217 96 C 157 96 129 119 129 158 C 129 186 144 211 182 230 C 207 216 238 208 271 208 C 377 208 449 275 449 369 C 449 419 428 461 392 489 C 423 483 459 479 504 477 L 504 522 L 317 522 C 303 525 289 526 273 526 C 173 526 100 461 100 369 C 100 319 120 277 155 248 C 110 231 81 190 81 143 C 81 102 104 69 149 53 C 91 26 62 -12 62 -63 C 62 -131 125 -187 272 -187 C 426 -187 521 -122 521 -23 Z M 282 -140 C 155 -140 114 -101 114 -52 C 114 -15 136 16 187 44 C 196 43 206 43 215 43 L 379 43 C 435 43 470 20 470 -29 C 470 -98 399 -140 282 -140 Z" unicode="ğ" />
<glyph horiz-adv-x="637" d="M 325 805 C 350 805 367 818 367 845 C 367 873 351 886 325 886 C 301 886 284 873 284 846 C 284 818 301 805 325 805 Z M 575 291 L 575 352 L 317 352 L 317 302 L 519 302 L 519 294 C 519 104 446 41 325 41 C 201 41 120 123 120 356 C 120 573 201 655 324 655 C 425 655 479 605 499 524 L 554 539 C 528 639 452 705 325 705 C 171 705 64 600 64 356 C 64 99 171 -9 325 -9 C 473 -9 575 76 575 291 Z" unicode="Ġ" />
<glyph horiz-adv-x="563" d="M 292 631 C 316 631 333 644 333 671 C 333 699 317 712 292 712 C 267 712 250 699 250 672 C 250 644 267 631 292 631 Z M 273 254 C 204 254 150 291 150 367 C 150 443 205 480 274 480 C 343 480 397 443 397 367 C 397 290 343 254 273 254 Z M 521 -23 C 521 54 467 96 379 96 L 217 96 C 157 96 129 119 129 158 C 129 186 144 211 182 230 C 207 216 238 208 271 208 C 377 208 449 275 449 369 C 449 419 428 461 392 489 C 423 483 459 479 504 477 L 504 522 L 317 522 C 303 525 289 526 273 526 C 173 526 100 461 100 369 C 100 319 120 277 155 248 C 110 231 81 190 81 143 C 81 102 104 69 149 53 C 91 26 62 -12 62 -63 C 62 -131 125 -187 272 -187 C 426 -187 521 -122 521 -23 Z M 282 -140 C 155 -140 114 -101 114 -52 C 114 -15 136 16 187 44 C 196 43 206 43 215 43 L 379 43 C 435 43 470 20 470 -29 C 470 -98 399 -140 282 -140 Z" unicode="ġ" />
<glyph horiz-adv-x="637" d="M 575 291 L 575 352 L 317 352 L 317 302 L 519 302 L 519 294 C 519 104 446 41 325 41 C 201 41 120 123 120 356 C 120 573 201 655 324 655 C 425 655 479 605 499 524 L 554 539 C 528 639 452 705 325 705 C 171 705 64 600 64 356 C 64 99 171 -9 325 -9 C 473 -9 575 76 575 291 Z M 249 -236 L 292 -236 C 327 -187 358 -137 386 -78 L 307 -78 C 292 -134 272 -184 249 -236 Z" unicode="Ģ" />
<glyph horiz-adv-x="563" d="M 256 605 L 334 605 C 350 662 369 712 392 762 L 351 762 C 315 714 284 664 256 605 Z M 273 254 C 204 254 150 291 150 367 C 150 443 205 480 274 480 C 343 480 397 443 397 367 C 397 290 343 254 273 254 Z M 521 -23 C 521 54 467 96 379 96 L 217 96 C 157 96 129 119 129 158 C 129 186 144 211 182 230 C 207 216 238 208 271 208 C 377 208 449 275 449 369 C 449 419 428 461 392 489 C 423 483 459 479 504 477 L 504 522 L 317 522 C 303 525 289 526 273 526 C 173 526 100 461 100 369 C 100 319 120 277 155 248 C 110 231 81 190 81 143 C 81 102 104 69 149 53 C 91 26 62 -12 62 -63 C 62 -131 125 -187 272 -187 C 426 -187 521 -122 521 -23 Z M 282 -140 C 155 -140 114 -101 114 -52 C 114 -15 136 16 187 44 C 196 43 206 43 215 43 L 379 43 C 435 43 470 20 470 -29 C 470 -98 399 -140 282 -140 Z" unicode="ģ" />
<glyph horiz-adv-x="654" d="M 185 787 C 236 819 284 855 326 893 C 371 854 419 818 470 787 L 495 814 C 443 855 394 897 349 944 L 304 944 C 259 898 211 855 160 814 Z M 95 0 L 150 0 L 150 352 L 504 352 L 504 0 L 560 0 L 560 696 L 504 696 L 504 400 L 150 400 L 150 696 L 95 696 Z" unicode="Ĥ" />
<glyph horiz-adv-x="566" d="M -19 787 C 32 819 79 855 122 893 C 167 854 214 818 265 787 L 291 814 C 239 855 190 897 144 944 L 100 944 C 55 898 7 855 -45 814 Z M 150 0 L 150 367 C 187 433 241 479 309 479 C 378 479 422 432 422 346 L 422 0 L 478 0 L 478 358 C 478 464 419 532 324 532 C 248 532 195 490 150 419 L 150 716 L 95 716 L 95 0 Z" unicode="ĥ" />
<glyph horiz-adv-x="654" d="M 150 353 L 150 517 L 504 517 L 504 353 Z M 150 303 L 504 303 L 504 0 L 560 0 L 560 517 L 637 517 L 637 567 L 560 567 L 560 696 L 504 696 L 504 567 L 150 567 L 150 696 L 95 696 L 95 567 L 16 567 L 16 517 L 95 517 L 95 0 L 150 0 Z" unicode="Ħ" />
<glyph horiz-adv-x="566" d="M 150 347 C 187 413 241 458 309 458 C 378 458 422 412 422 325 L 422 0 L 478 0 L 478 337 C 478 444 419 511 324 511 C 248 511 195 470 150 398 L 150 574 L 323 574 L 323 619 L 150 619 L 150 716 L 95 716 L 95 619 L 16 619 L 16 574 L 95 574 L 95 0 L 150 0 Z" unicode="ħ" />
<glyph horiz-adv-x="428" d="M 285 788 C 349 788 383 848 383 933 L 383 946 L 335 946 L 335 936 C 335 869 317 834 289 834 C 264 834 248 865 230 893 C 210 924 190 954 147 954 C 83 954 48 893 48 809 L 48 796 L 97 796 L 97 806 C 96 873 114 908 142 908 C 168 908 185 878 203 850 C 223 819 244 788 285 788 Z M 47 0 L 381 0 L 381 49 L 242 49 L 242 647 L 381 647 L 381 696 L 47 696 L 47 647 L 186 647 L 186 49 L 47 49 Z" unicode="Ĩ" />
<glyph horiz-adv-x="266" d="M 203 614 C 267 614 302 674 302 759 L 302 772 L 254 772 L 254 762 C 254 695 236 661 207 661 C 183 661 167 691 148 720 C 129 750 109 780 66 780 C 2 780 -34 720 -34 635 L -34 622 L 15 622 L 15 632 C 14 699 33 734 61 734 C 86 734 104 704 122 676 C 141 645 163 614 203 614 Z M 95 0 L 150 0 L 150 522 L 95 522 Z" unicode="ĩ" />
<glyph horiz-adv-x="428" d="M 56 832 L 377 832 L 377 878 L 56 878 Z M 47 0 L 381 0 L 381 49 L 242 49 L 242 647 L 381 647 L 381 696 L 47 696 L 47 647 L 186 647 L 186 49 L 47 49 Z" unicode="Ī" />
<glyph horiz-adv-x="266" d="M -26 659 L 295 659 L 295 704 L -26 704 Z M 95 0 L 150 0 L 150 522 L 95 522 Z" unicode="ī" />
<glyph horiz-adv-x="428" d="M 210 779 C 313 779 384 827 385 943 L 338 943 C 337 852 293 818 210 818 C 128 818 83 852 82 943 L 36 943 C 37 827 108 779 210 779 Z M 47 0 L 381 0 L 381 49 L 242 49 L 242 647 L 381 647 L 381 696 L 47 696 L 47 647 L 186 647 L 186 49 L 47 49 Z" unicode="Ĭ" />
<glyph horiz-adv-x="266" d="M 133 606 C 236 606 307 653 308 769 L 261 769 C 260 678 215 644 133 644 C 51 644 6 678 5 769 L -42 769 C -41 653 30 606 133 606 Z M 95 0 L 150 0 L 150 522 L 95 522 Z" unicode="ĭ" />
<glyph horiz-adv-x="428" d="M 348 -177 L 347 -133 C 329 -138 300 -142 280 -142 C 233 -142 202 -120 202 -83 C 202 -53 218 -25 251 0 L 381 0 L 381 49 L 242 49 L 242 647 L 381 647 L 381 696 L 47 696 L 47 647 L 186 647 L 186 49 L 47 49 L 47 0 L 207 0 C 180 -24 160 -58 160 -97 C 160 -151 208 -185 273 -185 C 298 -185 327 -181 348 -177 Z" unicode="Į" />
<glyph horiz-adv-x="266" d="M 136 611 C 161 611 178 624 178 650 C 178 679 162 692 136 692 C 112 692 95 679 95 651 C 95 624 112 611 136 611 Z M 236 -177 L 235 -133 C 217 -138 188 -142 169 -142 C 121 -142 90 -120 90 -83 C 90 -53 106 -25 139 0 L 150 0 L 150 8 C 153 10 156 12 159 13 L 150 21 L 150 522 L 95 522 L 95 0 L 95 0 C 68 -24 48 -58 48 -97 C 48 -151 97 -185 162 -185 C 186 -185 215 -181 236 -177 Z" unicode="į" />
<glyph horiz-adv-x="428" d="M 214 805 C 239 805 256 818 256 845 C 256 873 240 886 214 886 C 190 886 173 873 173 846 C 173 818 190 805 214 805 Z M 47 0 L 381 0 L 381 49 L 242 49 L 242 647 L 381 647 L 381 696 L 47 696 L 47 647 L 186 647 L 186 49 L 47 49 Z" unicode="İ" />
<glyph horiz-adv-x="244" d="M 95 0 L 150 0 L 150 522 L 95 522 Z" unicode="ı" />
<glyph horiz-adv-x="963" d="M 47 0 L 381 0 L 381 49 L 242 49 L 242 647 L 381 647 L 381 696 L 47 696 L 47 647 L 186 647 L 186 49 L 47 49 Z M 651 -9 C 788 -9 862 87 862 221 L 862 696 L 806 696 L 806 220 C 806 116 756 41 653 41 C 557 41 506 102 497 218 L 441 211 C 449 68 535 -9 651 -9 Z" unicode="Ĳ" />
<glyph horiz-adv-x="491" d="M 122 633 C 146 633 164 646 164 673 C 164 701 147 714 122 714 C 98 714 80 701 80 674 C 80 646 98 633 122 633 Z M 360 632 C 384 632 401 645 401 672 C 401 700 385 713 360 713 C 335 713 318 700 318 673 C 318 645 335 632 360 632 Z M 95 0 L 150 0 L 150 522 L 95 522 Z M 257 -181 C 331 -181 390 -136 390 -35 L 390 522 L 334 522 L 334 -37 C 334 -105 301 -130 253 -130 C 232 -130 209 -123 184 -113 L 171 -164 C 201 -174 229 -181 257 -181 Z" unicode="ĳ" />
<glyph horiz-adv-x="536" d="M 250 787 C 301 819 349 855 391 893 C 436 854 484 818 535 787 L 560 814 C 508 855 459 897 414 944 L 369 944 C 324 898 276 855 225 814 Z M 240 -9 C 376 -9 450 87 450 221 L 450 696 L 394 696 L 394 220 C 394 116 345 41 242 41 C 145 41 95 102 85 218 L 29 211 C 38 68 123 -9 240 -9 Z" unicode="Ĵ" />
<glyph horiz-adv-x="315" d="M 16 613 C 67 645 115 681 158 720 C 202 680 250 644 301 613 L 326 640 C 274 681 226 724 180 770 L 135 770 C 90 725 43 681 -9 640 Z M 36 -181 C 110 -181 169 -136 169 -35 L 169 522 L 113 522 L 113 -37 C 113 -105 79 -130 32 -130 C 10 -130 -12 -123 -38 -113 L -51 -164 C -20 -174 7 -181 36 -181 Z" unicode="ĵ" />
<glyph horiz-adv-x="588" d="M 485 -1 L 550 1 L 298 412 L 546 695 L 485 696 L 150 316 L 150 696 L 95 696 L 95 0 L 150 0 L 150 244 L 261 370 Z M 200 -236 L 243 -236 C 278 -187 309 -137 337 -78 L 258 -78 C 243 -134 224 -184 200 -236 Z" unicode="Ķ" />
<glyph horiz-adv-x="508" d="M 415 -1 L 476 1 L 285 308 L 463 521 L 401 523 L 150 215 L 150 716 L 95 716 L 95 0 L 150 0 L 150 146 L 249 265 Z M 189 -236 L 232 -236 C 267 -187 298 -137 326 -78 L 247 -78 C 232 -134 212 -184 189 -236 Z" unicode="ķ" />
<glyph horiz-adv-x="508" d="M 415 -1 L 476 1 L 285 308 L 463 521 L 401 523 L 150 215 L 150 522 L 95 522 L 95 0 L 150 0 L 150 146 L 249 265 Z" unicode="ĸ" />
<glyph horiz-adv-x="494" d="M 71 773 L 116 772 C 166 823 211 877 253 934 L 172 935 C 142 879 109 825 71 773 Z M 95 0 L 460 0 L 460 50 L 150 50 L 150 696 L 95 696 Z" unicode="Ĺ" />
<glyph horiz-adv-x="244" d="M 88 773 L 133 772 C 183 823 229 877 270 934 L 189 935 C 160 879 126 825 88 773 Z M 95 0 L 150 0 L 150 716 L 95 716 Z" unicode="ĺ" />
<glyph horiz-adv-x="494" d="M 95 0 L 460 0 L 460 50 L 150 50 L 150 696 L 95 696 Z M 192 -236 L 235 -236 C 270 -187 301 -137 329 -78 L 250 -78 C 235 -134 215 -184 192 -236 Z" unicode="Ļ" />
<glyph horiz-adv-x="244" d="M 95 0 L 150 0 L 150 716 L 95 716 Z M 35 -236 L 77 -236 C 113 -187 143 -137 172 -78 L 92 -78 C 77 -134 58 -184 35 -236 Z" unicode="ļ" />
<glyph horiz-adv-x="494" d="M 340 511 L 379 511 C 408 561 429 615 441 696 L 381 696 C 374 620 363 579 340 511 Z M 95 0 L 460 0 L 460 50 L 150 50 L 150 696 L 95 696 Z" unicode="Ľ" />
<glyph horiz-adv-x="266" d="M 227 562 L 265 562 C 294 612 315 666 327 747 L 267 747 C 260 671 249 630 227 562 Z M 95 0 L 150 0 L 150 716 L 95 716 Z" unicode="ľ" />
<glyph horiz-adv-x="494" d="M 95 0 L 460 0 L 460 50 L 150 50 L 150 696 L 95 696 Z M 364 366 C 388 366 405 379 405 405 C 405 434 389 447 364 447 C 339 447 322 434 322 407 C 322 379 339 366 364 366 Z" unicode="Ŀ" />
<glyph horiz-adv-x="258" d="M 95 0 L 150 0 L 150 716 L 95 716 Z M 258 282 C 283 282 300 295 300 321 C 300 350 284 363 258 363 C 234 363 216 350 216 322 C 216 295 234 282 258 282 Z" unicode="ŀ" />
<glyph horiz-adv-x="499" d="M 465 0 L 465 50 L 155 50 L 155 344 L 324 403 L 324 454 L 155 394 L 155 696 L 100 696 L 100 375 L 20 347 L 20 296 L 100 324 L 100 0 Z" unicode="Ł" />
<glyph horiz-adv-x="306" d="M 122 0 L 185 0 L 185 335 L 272 367 L 272 418 L 185 385 L 185 716 L 122 716 L 122 363 L 32 330 L 32 279 L 122 312 Z" unicode="ł" />
<glyph horiz-adv-x="658" d="M 270 773 L 315 772 C 365 823 411 877 452 934 L 371 935 C 341 879 308 825 270 773 Z M 563 -1 L 563 696 L 511 696 L 511 82 L 161 696 L 95 696 L 95 0 L 146 0 L 146 614 L 497 -1 Z" unicode="Ń" />
<glyph horiz-adv-x="566" d="M 244 600 L 289 599 C 338 649 384 703 426 760 L 345 761 C 315 705 282 651 244 600 Z M 150 0 L 150 367 C 187 433 242 479 309 479 C 378 479 422 432 422 346 L 422 0 L 478 0 L 478 358 C 478 464 419 532 324 532 C 249 532 195 490 150 419 L 150 522 L 95 522 L 95 0 Z" unicode="ń" />
<glyph horiz-adv-x="658" d="M 563 -1 L 563 696 L 511 696 L 511 82 L 161 696 L 95 696 L 95 0 L 146 0 L 146 614 L 497 -1 Z M 235 -236 L 277 -236 C 313 -187 343 -137 372 -78 L 293 -78 C 277 -134 258 -184 235 -236 Z" unicode="Ņ" />
<glyph horiz-adv-x="566" d="M 150 0 L 150 367 C 187 433 242 479 309 479 C 378 479 422 432 422 346 L 422 0 L 478 0 L 478 358 C 478 464 419 532 324 532 C 249 532 195 490 150 419 L 150 522 L 95 522 L 95 0 Z M 187 -236 L 230 -236 C 265 -187 296 -137 324 -78 L 245 -78 C 230 -134 210 -184 187 -236 Z" unicode="ņ" />
<glyph horiz-adv-x="658" d="M 324 784 L 369 784 C 414 831 462 874 513 913 L 488 941 C 438 910 390 873 347 834 C 301 873 253 909 203 941 L 178 913 C 229 874 277 830 324 784 Z M 563 -1 L 563 696 L 511 696 L 511 82 L 161 696 L 95 696 L 95 0 L 146 0 L 146 614 L 497 -1 Z" unicode="Ň" />
<glyph horiz-adv-x="566" d="M 267 610 L 312 610 C 357 658 405 700 456 739 L 431 767 C 381 736 333 699 290 661 C 244 699 196 735 146 767 L 121 739 C 172 700 221 657 267 610 Z M 150 0 L 150 367 C 187 433 242 479 309 479 C 378 479 422 432 422 346 L 422 0 L 478 0 L 478 358 C 478 464 419 532 324 532 C 249 532 195 490 150 419 L 150 522 L 95 522 L 95 0 Z" unicode="ň" />
<glyph horiz-adv-x="566" d="M 8 600 L 53 599 C 103 649 148 703 190 760 L 109 761 C 79 705 46 651 8 600 Z M 150 0 L 150 367 C 187 433 242 479 309 479 C 378 479 422 432 422 346 L 422 0 L 478 0 L 478 358 C 478 464 419 532 324 532 C 249 532 195 490 150 419 L 150 522 L 95 522 L 95 0 Z" unicode="ŉ" />
<glyph horiz-adv-x="653" d="M 426 -181 C 501 -181 560 -136 560 -35 L 560 517 C 560 632 484 705 363 705 C 269 705 203 662 150 577 L 150 696 L 95 696 L 95 0 L 150 0 L 150 526 C 193 604 263 652 347 652 C 443 652 504 601 504 504 L 504 -37 C 504 -105 471 -130 423 -130 C 401 -130 379 -123 354 -113 L 340 -164 C 371 -174 398 -181 426 -181 Z" unicode="Ŋ" />
<glyph horiz-adv-x="566" d="M 345 -181 C 419 -181 478 -136 478 -35 L 478 358 C 478 464 419 532 324 532 C 248 532 195 490 150 419 L 150 522 L 95 522 L 95 0 L 150 0 L 150 367 C 187 433 241 479 309 479 C 378 479 422 432 422 346 L 422 -37 C 422 -105 388 -130 341 -130 C 319 -130 297 -123 271 -113 L 258 -164 C 289 -174 316 -181 345 -181 Z" unicode="ŋ" />
<glyph horiz-adv-x="650" d="M 165 832 L 486 832 L 486 878 L 165 878 Z M 326 -9 C 480 -9 586 95 586 356 C 586 602 479 705 327 705 C 173 705 64 602 64 356 C 64 95 172 -9 326 -9 Z M 326 41 C 202 41 120 120 120 356 C 120 575 202 655 326 655 C 449 655 530 575 530 356 C 530 120 449 41 326 41 Z" unicode="Ō" />
<glyph horiz-adv-x="541" d="M 111 659 L 432 659 L 432 704 L 111 704 Z M 270 -9 C 393 -9 476 76 476 260 C 476 444 392 532 271 532 C 147 532 65 444 65 261 C 65 76 147 -9 270 -9 Z M 270 41 C 177 41 122 106 122 261 C 122 413 177 482 270 482 C 364 482 419 413 419 260 C 419 106 364 41 270 41 Z" unicode="ō" />
<glyph horiz-adv-x="650" d="M 325 779 C 428 779 499 827 500 943 L 453 943 C 452 852 408 818 325 818 C 243 818 198 852 197 943 L 150 943 C 151 827 223 779 325 779 Z M 326 -9 C 480 -9 586 95 586 356 C 586 602 479 705 327 705 C 173 705 64 602 64 356 C 64 95 172 -9 326 -9 Z M 326 41 C 202 41 120 120 120 356 C 120 575 202 655 326 655 C 449 655 530 575 530 356 C 530 120 449 41 326 41 Z" unicode="Ŏ" />
<glyph horiz-adv-x="541" d="M 271 606 C 374 606 445 653 446 769 L 399 769 C 398 678 354 644 271 644 C 189 644 144 678 143 769 L 97 769 C 98 653 169 606 271 606 Z M 270 -9 C 393 -9 476 76 476 260 C 476 444 392 532 271 532 C 147 532 65 444 65 261 C 65 76 147 -9 270 -9 Z M 270 41 C 177 41 122 106 122 261 C 122 413 177 482 270 482 C 364 482 419 413 419 260 C 419 106 364 41 270 41 Z" unicode="ŏ" />
<glyph horiz-adv-x="650" d="M 216 773 L 252 772 C 292 826 325 883 356 941 L 293 942 C 271 884 246 827 216 773 Z M 385 773 L 421 772 C 459 827 494 883 524 941 L 462 942 C 441 886 415 829 385 773 Z M 326 -9 C 480 -9 586 95 586 356 C 586 602 479 705 327 705 C 173 705 64 602 64 356 C 64 95 172 -9 326 -9 Z M 326 41 C 202 41 120 120 120 356 C 120 575 202 655 326 655 C 449 655 530 575 530 356 C 530 120 449 41 326 41 Z" unicode="Ő" />
<glyph horiz-adv-x="541" d="M 163 600 L 198 599 C 238 652 271 709 302 767 L 239 768 C 217 710 192 653 163 600 Z M 331 600 L 367 599 C 405 653 440 709 471 767 L 409 768 C 387 712 361 655 331 600 Z M 270 -9 C 393 -9 476 76 476 260 C 476 444 392 532 271 532 C 147 532 65 444 65 261 C 65 76 147 -9 270 -9 Z M 270 41 C 177 41 122 106 122 261 C 122 413 177 482 270 482 C 364 482 419 413 419 260 C 419 106 364 41 270 41 Z" unicode="ő" />
<glyph horiz-adv-x="967" d="M 358 0 L 912 0 L 912 49 L 560 49 L 560 352 L 872 352 L 872 401 L 560 401 L 560 647 L 912 647 L 912 696 L 357 696 C 196 696 73 600 73 352 C 73 95 197 0 358 0 Z M 359 50 C 226 50 129 123 129 352 C 129 569 226 647 358 647 L 504 647 L 504 50 Z" unicode="Œ" />
<glyph horiz-adv-x="893" d="M 632 484 C 710 484 771 430 772 304 L 772 300 L 477 300 C 485 427 539 484 632 484 Z M 270 41 C 177 41 122 106 122 261 C 122 413 177 482 270 482 C 364 482 419 413 419 260 C 419 106 364 41 270 41 Z M 817 73 L 779 108 C 747 62 700 41 642 41 C 536 41 478 110 476 253 L 828 253 L 828 298 C 828 450 741 532 633 532 C 545 532 479 489 448 401 C 416 489 352 532 271 532 C 147 532 65 444 65 261 C 65 76 147 -9 270 -9 C 354 -9 418 34 449 124 C 482 36 550 -9 642 -9 C 711 -9 779 18 817 73 Z" unicode="œ" />
<glyph horiz-adv-x="615" d="M 237 773 L 282 772 C 331 823 377 877 419 934 L 337 935 C 308 879 274 825 237 773 Z M 150 326 L 150 647 L 334 647 C 434 647 491 585 491 485 C 491 391 434 326 334 326 Z M 150 0 L 150 278 L 311 278 L 491 0 L 555 0 L 373 281 C 483 297 547 384 547 485 C 547 615 468 696 336 696 L 95 696 L 95 0 Z" unicode="Ŕ" />
<glyph horiz-adv-x="394" d="M 178 600 L 223 599 C 272 649 318 703 360 760 L 278 761 C 249 705 215 651 178 600 Z M 150 0 L 150 379 C 187 443 242 480 303 480 C 324 480 346 475 360 468 L 373 518 C 357 526 331 530 310 530 C 237 530 186 488 150 428 L 150 522 L 95 522 L 95 0 Z" unicode="ŕ" />
<glyph horiz-adv-x="615" d="M 150 326 L 150 647 L 334 647 C 434 647 491 585 491 485 C 491 391 434 326 334 326 Z M 150 0 L 150 278 L 311 278 L 491 0 L 555 0 L 373 281 C 483 297 547 384 547 485 C 547 615 468 696 336 696 L 95 696 L 95 0 Z M 223 -236 L 265 -236 C 301 -187 331 -137 360 -78 L 280 -78 C 265 -134 246 -184 223 -236 Z" unicode="Ŗ" />
<glyph horiz-adv-x="394" d="M 150 0 L 150 379 C 187 443 242 480 303 480 C 324 480 346 475 360 468 L 373 518 C 357 526 331 530 310 530 C 237 530 186 488 150 428 L 150 522 L 95 522 L 95 0 Z M 33 -236 L 75 -236 C 111 -187 141 -137 170 -78 L 90 -78 C 75 -134 56 -184 33 -236 Z" unicode="ŗ" />
<glyph horiz-adv-x="615" d="M 291 784 L 335 784 C 380 831 429 874 480 913 L 454 941 C 404 910 357 873 313 834 C 267 873 220 909 170 941 L 144 913 C 195 874 244 830 291 784 Z M 150 326 L 150 647 L 334 647 C 434 647 491 585 491 485 C 491 391 434 326 334 326 Z M 150 0 L 150 278 L 311 278 L 491 0 L 555 0 L 373 281 C 483 297 547 384 547 485 C 547 615 468 696 336 696 L 95 696 L 95 0 Z" unicode="Ř" />
<glyph horiz-adv-x="394" d="M 199 610 L 244 610 C 289 658 337 700 388 739 L 363 767 C 313 736 265 699 222 661 C 176 699 128 735 78 767 L 53 739 C 104 700 152 657 199 610 Z M 150 0 L 150 379 C 187 443 242 480 303 480 C 324 480 346 475 360 468 L 373 518 C 357 526 331 530 310 530 C 237 530 186 488 150 428 L 150 522 L 95 522 L 95 0 Z" unicode="ř" />
<glyph horiz-adv-x="597" d="M 244 773 L 289 772 C 338 823 384 877 426 934 L 345 935 C 315 879 282 825 244 773 Z M 306 -5 C 441 -5 533 70 533 182 C 533 289 466 346 310 379 C 173 410 135 447 135 523 C 135 608 197 650 287 650 C 378 650 435 606 475 546 L 516 577 C 472 652 396 700 289 700 C 163 700 80 628 80 520 C 80 414 144 362 286 329 C 430 296 479 260 479 178 C 479 91 410 44 306 44 C 201 44 136 87 95 161 L 52 129 C 104 41 191 -5 306 -5 Z" unicode="Ś" />
<glyph horiz-adv-x="498" d="M 183 600 L 228 599 C 277 649 323 703 365 760 L 284 761 C 254 705 221 651 183 600 Z M 254 -9 C 356 -9 441 41 441 136 C 441 230 379 262 266 288 C 165 309 127 329 127 390 C 127 453 180 482 243 482 C 299 482 354 459 397 425 L 425 467 C 373 509 308 532 243 532 C 149 532 72 481 72 387 C 72 295 132 260 249 235 C 347 213 386 194 386 133 C 386 66 323 41 254 41 C 192 41 130 60 84 97 L 57 54 C 112 11 181 -9 254 -9 Z" unicode="ś" />
<glyph horiz-adv-x="597" d="M 167 787 C 217 819 265 855 308 893 C 353 854 400 818 451 787 L 477 814 C 425 855 376 897 330 944 L 286 944 C 241 898 193 855 141 814 Z M 306 -5 C 441 -5 533 70 533 182 C 533 289 466 346 310 379 C 173 410 135 447 135 523 C 135 608 197 650 287 650 C 378 650 435 606 475 546 L 516 577 C 472 652 396 700 289 700 C 163 700 80 628 80 520 C 80 414 144 362 286 329 C 430 296 479 260 479 178 C 479 91 410 44 306 44 C 201 44 136 87 95 161 L 52 129 C 104 41 191 -5 306 -5 Z" unicode="Ŝ" />
<glyph horiz-adv-x="498" d="M 96 613 C 146 645 194 681 237 720 C 282 680 329 644 380 613 L 405 640 C 354 681 305 724 259 770 L 214 770 C 170 725 122 681 70 640 Z M 254 -9 C 356 -9 441 41 441 136 C 441 230 379 262 266 288 C 165 309 127 329 127 390 C 127 453 180 482 243 482 C 299 482 354 459 397 425 L 425 467 C 373 509 308 532 243 532 C 149 532 72 481 72 387 C 72 295 132 260 249 235 C 347 213 386 194 386 133 C 386 66 323 41 254 41 C 192 41 130 60 84 97 L 57 54 C 112 11 181 -9 254 -9 Z" unicode="ŝ" />
<glyph horiz-adv-x="597" d="M 308 -185 C 365 -185 419 -160 419 -105 C 419 -61 381 -34 328 -27 L 330 -4 C 452 4 533 77 533 182 C 533 289 466 346 310 379 C 173 410 135 447 135 523 C 135 608 197 650 287 650 C 378 650 435 606 475 546 L 516 577 C 472 652 396 700 289 700 C 163 700 80 628 80 520 C 80 414 144 362 286 329 C 430 296 479 260 479 178 C 479 91 410 44 306 44 C 201 44 136 87 95 161 L 52 129 C 101 45 183 -1 290 -5 L 288 -55 C 349 -58 369 -74 369 -105 C 369 -134 346 -147 309 -147 C 267 -147 245 -133 236 -93 L 194 -100 C 205 -157 249 -185 308 -185 Z" unicode="Ş" />
<glyph horiz-adv-x="498" d="M 257 -185 C 314 -185 368 -160 368 -105 C 368 -61 330 -34 277 -27 L 279 -8 C 369 -1 441 48 441 136 C 441 230 379 262 266 288 C 165 309 127 329 127 390 C 127 453 180 482 243 482 C 299 482 354 459 397 425 L 425 467 C 373 509 308 532 243 532 C 149 532 72 481 72 387 C 72 295 132 260 249 235 C 347 213 386 194 386 133 C 386 66 323 41 254 41 C 192 41 130 60 84 97 L 57 54 C 108 14 171 -6 239 -9 L 237 -55 C 298 -58 318 -74 318 -105 C 318 -134 295 -147 258 -147 C 216 -147 194 -133 185 -93 L 143 -100 C 154 -157 198 -185 257 -185 Z" unicode="ş" />
<glyph horiz-adv-x="597" d="M 277 784 L 322 784 C 367 831 416 874 466 913 L 441 941 C 391 910 343 873 300 834 C 254 873 206 909 157 941 L 131 913 C 182 874 231 830 277 784 Z M 306 -5 C 441 -5 533 70 533 182 C 533 289 466 346 310 379 C 173 410 135 447 135 523 C 135 608 197 650 287 650 C 378 650 435 606 475 546 L 516 577 C 472 652 396 700 289 700 C 163 700 80 628 80 520 C 80 414 144 362 286 329 C 430 296 479 260 479 178 C 479 91 410 44 306 44 C 201 44 136 87 95 161 L 52 129 C 104 41 191 -5 306 -5 Z" unicode="Š" />
<glyph horiz-adv-x="498" d="M 216 610 L 261 610 C 306 658 355 700 405 739 L 380 767 C 330 736 283 699 239 661 C 193 699 145 735 96 767 L 70 739 C 121 700 170 657 216 610 Z M 254 -9 C 356 -9 441 41 441 136 C 441 230 379 262 266 288 C 165 309 127 329 127 390 C 127 453 180 482 243 482 C 299 482 354 459 397 425 L 425 467 C 373 509 308 532 243 532 C 149 532 72 481 72 387 C 72 295 132 260 249 235 C 347 213 386 194 386 133 C 386 66 323 41 254 41 C 192 41 130 60 84 97 L 57 54 C 112 11 181 -9 254 -9 Z" unicode="š" />
<glyph horiz-adv-x="545" d="M 262 -185 C 319 -185 373 -160 373 -105 C 373 -61 335 -34 283 -27 L 284 0 L 301 0 L 301 647 L 513 647 L 513 696 L 32 696 L 32 647 L 245 647 L 245 8 L 242 -55 C 303 -58 323 -74 323 -105 C 323 -134 300 -147 263 -147 C 222 -147 199 -133 190 -93 L 148 -100 C 160 -157 203 -185 262 -185 Z" unicode="Ţ" />
<glyph horiz-adv-x="405" d="M 253 -185 C 310 -185 364 -160 364 -105 C 364 -61 326 -34 273 -27 L 274 -8 L 275 -8 C 307 -8 339 -1 371 12 L 359 61 C 330 49 303 43 279 43 C 226 43 191 79 191 158 L 191 473 L 362 473 L 362 522 L 191 522 L 191 666 L 135 666 L 135 522 L 28 522 L 28 473 L 135 473 L 135 161 C 135 67 170 11 235 -4 L 233 -55 C 294 -58 314 -74 314 -105 C 314 -134 291 -147 254 -147 C 212 -147 190 -133 181 -93 L 139 -100 C 150 -157 194 -185 253 -185 Z" unicode="ţ" />
<glyph horiz-adv-x="545" d="M 252 784 L 297 784 C 341 831 390 874 441 913 L 416 941 C 366 910 318 873 274 834 C 229 873 181 909 131 941 L 106 913 C 157 874 205 830 252 784 Z M 245 0 L 301 0 L 301 647 L 513 647 L 513 696 L 32 696 L 32 647 L 245 647 Z" unicode="Ť" />
<glyph horiz-adv-x="405" d="M 296 625 L 334 625 C 363 675 384 729 396 810 L 336 810 C 329 734 318 693 296 625 Z M 275 -8 C 307 -8 339 -1 371 12 L 359 61 C 330 49 303 43 279 43 C 226 43 191 79 191 158 L 191 473 L 362 473 L 362 522 L 191 522 L 191 666 L 135 666 L 135 522 L 28 522 L 28 473 L 135 473 L 135 161 C 135 49 185 -8 275 -8 Z" unicode="ť" />
<glyph horiz-adv-x="545" d="M 468 290 L 468 340 L 301 340 L 301 647 L 513 647 L 513 696 L 32 696 L 32 647 L 245 647 L 245 340 L 77 340 L 77 290 L 245 290 L 245 0 L 301 0 L 301 290 Z" unicode="Ŧ" />
<glyph horiz-adv-x="405" d="M 371 12 L 359 61 C 330 49 303 43 279 43 C 226 43 191 79 191 158 L 191 266 L 365 266 L 365 316 L 191 316 L 191 473 L 362 473 L 362 522 L 191 522 L 191 666 L 135 666 L 135 522 L 28 522 L 28 473 L 135 473 L 135 316 L 28 316 L 28 266 L 135 266 L 135 161 C 135 49 185 -8 275 -8 C 307 -8 339 -1 371 12 Z" unicode="ŧ" />
<glyph horiz-adv-x="645" d="M 391 788 C 455 788 490 848 490 933 L 490 946 L 442 946 L 442 936 C 442 869 424 834 395 834 C 371 834 355 865 336 893 C 317 924 297 954 254 954 C 190 954 154 893 154 809 L 154 796 L 203 796 L 203 806 C 202 873 221 908 249 908 C 274 908 292 878 310 850 C 329 819 351 788 391 788 Z M 322 -9 C 477 -9 560 103 560 245 L 560 696 L 504 696 L 504 244 C 504 131 449 41 322 41 C 197 41 141 131 141 244 L 141 696 L 85 696 L 85 245 C 85 103 169 -9 322 -9 Z" unicode="Ũ" />
<glyph horiz-adv-x="566" d="M 353 614 C 417 614 451 674 451 759 L 451 772 L 403 772 L 403 762 C 403 695 385 661 357 661 C 332 661 316 691 298 720 C 278 750 258 780 215 780 C 151 780 116 720 116 635 L 116 622 L 165 622 L 165 632 C 164 699 182 734 210 734 C 236 734 253 704 271 676 C 291 645 312 614 353 614 Z M 419 522 L 419 155 C 382 89 327 44 259 44 C 190 44 146 90 146 177 L 146 522 L 90 522 L 90 165 C 90 58 149 -9 244 -9 C 320 -9 373 33 419 104 L 419 0 L 475 0 L 475 522 Z" unicode="ũ" />
<glyph horiz-adv-x="645" d="M 162 832 L 483 832 L 483 878 L 162 878 Z M 322 -9 C 477 -9 560 103 560 245 L 560 696 L 504 696 L 504 244 C 504 131 449 41 322 41 C 197 41 141 131 141 244 L 141 696 L 85 696 L 85 245 C 85 103 169 -9 322 -9 Z" unicode="Ū" />
<glyph horiz-adv-x="566" d="M 123 659 L 444 659 L 444 704 L 123 704 Z M 419 522 L 419 155 C 382 89 327 44 259 44 C 190 44 146 90 146 177 L 146 522 L 90 522 L 90 165 C 90 58 149 -9 244 -9 C 320 -9 373 33 419 104 L 419 0 L 475 0 L 475 522 Z" unicode="ū" />
<glyph horiz-adv-x="645" d="M 322 779 C 425 779 496 827 497 943 L 450 943 C 449 852 404 818 322 818 C 240 818 195 852 194 943 L 147 943 C 148 827 220 779 322 779 Z M 322 -9 C 477 -9 560 103 560 245 L 560 696 L 504 696 L 504 244 C 504 131 449 41 322 41 C 197 41 141 131 141 244 L 141 696 L 85 696 L 85 245 C 85 103 169 -9 322 -9 Z" unicode="Ŭ" />
<glyph horiz-adv-x="566" d="M 284 606 C 386 606 457 653 458 769 L 412 769 C 411 678 366 644 284 644 C 201 644 157 678 155 769 L 109 769 C 110 653 181 606 284 606 Z M 419 522 L 419 155 C 382 89 327 44 259 44 C 190 44 146 90 146 177 L 146 522 L 90 522 L 90 165 C 90 58 149 -9 244 -9 C 320 -9 373 33 419 104 L 419 0 L 475 0 L 475 522 Z" unicode="ŭ" />
<glyph horiz-adv-x="645" d="M 322 763 C 397 763 447 810 447 897 C 447 986 397 1035 322 1035 C 247 1035 197 986 197 897 C 197 810 247 763 322 763 Z M 322 801 C 269 801 239 834 239 897 C 239 959 269 996 322 996 C 375 996 405 959 405 897 C 405 834 375 801 322 801 Z M 322 -9 C 477 -9 560 103 560 245 L 560 696 L 504 696 L 504 244 C 504 131 449 41 322 41 C 197 41 141 131 141 244 L 141 696 L 85 696 L 85 245 C 85 103 169 -9 322 -9 Z" unicode="Ů" />
<glyph horiz-adv-x="566" d="M 284 589 C 359 589 409 636 409 724 C 409 812 359 861 284 861 C 208 861 159 812 159 724 C 159 636 208 589 284 589 Z M 284 627 C 231 627 200 661 200 724 C 200 786 231 822 284 822 C 336 822 367 786 367 724 C 367 661 336 627 284 627 Z M 419 522 L 419 155 C 382 89 327 44 259 44 C 190 44 146 90 146 177 L 146 522 L 90 522 L 90 165 C 90 58 149 -9 244 -9 C 320 -9 373 33 419 104 L 419 0 L 475 0 L 475 522 Z" unicode="ů" />
<glyph horiz-adv-x="645" d="M 213 773 L 249 772 C 289 826 322 883 353 941 L 290 942 C 268 884 243 827 213 773 Z M 382 773 L 418 772 C 456 827 491 883 521 941 L 459 942 C 438 886 412 829 382 773 Z M 322 -9 C 477 -9 560 103 560 245 L 560 696 L 504 696 L 504 244 C 504 131 449 41 322 41 C 197 41 141 131 141 244 L 141 696 L 85 696 L 85 245 C 85 103 169 -9 322 -9 Z" unicode="Ű" />
<glyph horiz-adv-x="566" d="M 175 600 L 210 599 C 250 652 284 709 314 767 L 251 768 C 230 710 204 653 175 600 Z M 343 600 L 379 599 C 418 653 452 709 483 767 L 421 768 C 399 712 373 655 343 600 Z M 419 522 L 419 155 C 382 89 327 44 259 44 C 190 44 146 90 146 177 L 146 522 L 90 522 L 90 165 C 90 58 149 -9 244 -9 C 320 -9 373 33 419 104 L 419 0 L 475 0 L 475 522 Z" unicode="ű" />
<glyph horiz-adv-x="645" d="M 369 -185 C 393 -185 423 -181 443 -177 L 442 -133 C 425 -138 395 -142 376 -142 C 328 -142 298 -120 298 -83 C 298 -57 310 -31 336 -9 C 481 -3 560 107 560 245 L 560 696 L 504 696 L 504 244 C 504 131 449 41 322 41 C 197 41 141 131 141 244 L 141 696 L 85 696 L 85 245 C 85 111 159 5 294 -8 C 271 -31 255 -62 255 -97 C 255 -151 304 -185 369 -185 Z" unicode="Ų" />
<glyph horiz-adv-x="566" d="M 523 -177 L 522 -133 C 505 -138 476 -142 456 -142 C 409 -142 378 -120 378 -83 C 378 -53 394 -25 427 0 L 475 0 L 475 522 L 419 522 L 419 155 C 382 89 327 44 259 44 C 190 44 146 90 146 177 L 146 522 L 90 522 L 90 165 C 90 58 149 -9 244 -9 C 320 -9 373 33 419 104 L 419 24 C 374 2 335 -43 335 -97 C 335 -151 384 -185 449 -185 C 474 -185 503 -181 523 -177 Z" unicode="ų" />
<glyph horiz-adv-x="773" d="M 244 787 C 295 819 342 855 385 893 C 430 854 478 818 528 787 L 554 814 C 502 855 453 897 408 944 L 363 944 C 318 898 270 855 218 814 Z M 554 0 L 610 0 L 765 696 L 712 696 L 582 78 L 426 622 L 377 622 L 223 77 L 93 696 L 37 696 L 192 0 L 249 0 L 401 542 Z" unicode="Ŵ" />
<glyph horiz-adv-x="716" d="M 214 613 C 265 645 313 681 356 720 C 400 680 448 644 499 613 L 524 640 C 473 681 424 724 378 770 L 333 770 C 289 725 241 681 189 640 Z M 478 0 L 534 0 L 672 522 L 619 522 L 507 66 L 382 482 L 334 482 L 212 69 L 101 522 L 45 522 L 183 0 L 239 0 L 357 402 Z" unicode="ŵ" />
<glyph horiz-adv-x="586" d="M 150 787 C 201 819 249 855 292 893 C 336 854 384 818 435 787 L 460 814 C 409 855 360 897 314 944 L 269 944 C 225 898 177 855 125 814 Z M 321 0 L 321 266 L 558 696 L 497 696 L 295 318 L 90 696 L 27 696 L 265 266 L 265 0 Z" unicode="Ŷ" />
<glyph horiz-adv-x="497" d="M 106 613 C 157 645 204 681 247 720 C 292 680 339 644 390 613 L 416 640 C 364 681 315 724 269 770 L 225 770 C 180 725 132 681 80 640 Z M 110 -180 C 178 -180 227 -143 259 -49 L 460 522 L 403 522 L 252 65 L 99 522 L 40 522 L 224 -6 L 218 -22 C 197 -88 173 -130 113 -130 C 96 -130 72 -127 53 -122 L 44 -172 C 66 -178 88 -180 110 -180 Z" unicode="ŷ" />
<glyph horiz-adv-x="586" d="M 375 805 C 399 805 417 818 417 845 C 417 873 399 886 375 886 C 350 886 333 873 333 846 C 333 818 350 805 375 805 Z M 210 805 C 235 805 253 818 253 845 C 253 873 236 886 210 886 C 186 886 169 873 169 846 C 169 818 186 805 210 805 Z M 321 0 L 321 266 L 558 696 L 497 696 L 295 318 L 90 696 L 27 696 L 265 266 L 265 0 Z" unicode="Ÿ" />
<glyph horiz-adv-x="583" d="M 216 773 L 261 772 C 311 823 357 877 398 934 L 317 935 C 288 879 254 825 216 773 Z M 523 0 L 523 50 L 124 50 L 523 647 L 523 696 L 60 696 L 60 647 L 457 647 L 60 50 L 60 0 Z" unicode="Ź" />
<glyph horiz-adv-x="475" d="M 163 600 L 207 599 C 257 649 303 703 345 760 L 263 761 C 234 705 200 651 163 600 Z M 418 0 L 418 50 L 122 50 L 418 473 L 418 522 L 57 522 L 57 473 L 356 473 L 57 50 L 57 0 Z" unicode="ź" />
<glyph horiz-adv-x="583" d="M 292 805 C 316 805 333 818 333 845 C 333 873 317 886 292 886 C 267 886 250 873 250 846 C 250 818 267 805 292 805 Z M 523 0 L 523 50 L 124 50 L 523 647 L 523 696 L 60 696 L 60 647 L 457 647 L 60 50 L 60 0 Z" unicode="Ż" />
<glyph horiz-adv-x="475" d="M 238 631 C 262 631 279 644 279 671 C 279 699 263 712 238 712 C 213 712 196 699 196 672 C 196 644 213 631 238 631 Z M 418 0 L 418 50 L 122 50 L 418 473 L 418 522 L 57 522 L 57 473 L 356 473 L 57 50 L 57 0 Z" unicode="ż" />
<glyph horiz-adv-x="583" d="M 270 784 L 315 784 C 360 831 409 874 459 913 L 434 941 C 384 910 336 873 293 834 C 247 873 199 909 149 941 L 124 913 C 175 874 224 830 270 784 Z M 523 0 L 523 50 L 124 50 L 523 647 L 523 696 L 60 696 L 60 647 L 457 647 L 60 50 L 60 0 Z" unicode="Ž" />
<glyph horiz-adv-x="475" d="M 216 610 L 261 610 C 306 658 355 700 405 739 L 380 767 C 330 736 283 699 239 661 C 193 699 145 735 96 767 L 70 739 C 121 700 170 657 216 610 Z M 418 0 L 418 50 L 122 50 L 418 473 L 418 522 L 57 522 L 57 473 L 356 473 L 57 50 L 57 0 Z" unicode="ž" />
<glyph horiz-adv-x="536" d="M 164 -6 C 242 -6 296 48 296 141 L 296 375 L 468 375 L 468 425 L 296 425 L 296 545 C 296 629 324 659 384 659 C 408 659 436 652 462 643 L 474 690 C 449 702 404 708 372 708 C 294 708 240 653 240 561 L 240 425 L 74 425 L 74 375 L 240 375 L 240 158 C 240 73 212 44 151 44 C 126 44 99 51 73 59 L 61 12 C 89 1 134 -6 164 -6 Z" unicode="ƒ" />
<glyph horiz-adv-x="258" d="M -59 0 L -4 0 L 315 696 L 261 696 Z" unicode="⁄" />
<glyph horiz-adv-x="954" d="M 713 268 C 806 268 869 342 869 488 C 869 628 807 703 713 703 C 620 703 557 628 557 489 C 557 342 619 268 713 268 Z M 150 618 L 388 -1 L 478 -1 L 478 696 L 421 696 L 421 66 L 180 696 L 95 696 L 95 0 L 150 0 Z M 713 319 C 649 319 614 375 614 489 C 614 595 648 652 713 652 C 776 652 811 595 811 488 C 811 375 776 319 713 319 Z" unicode="№" />
<glyph horiz-adv-x="933" d="M 280 0 L 335 0 L 654 696 L 601 696 Z" unicode="⅛" />
<glyph horiz-adv-x="967" d="M 295 0 L 350 0 L 669 696 L 615 696 Z" unicode="⅜" />
<glyph horiz-adv-x="967" d="M 295 0 L 350 0 L 669 696 L 615 696 Z" unicode="⅝" />
<glyph horiz-adv-x="620" d="M 311 763 C 386 763 436 810 436 897 C 436 980 393 1027 326 1034 C 376 1084 422 1138 463 1195 L 382 1196 C 353 1140 319 1086 282 1035 L 299 1034 C 231 1029 186 981 186 897 C 186 810 236 763 311 763 Z M 311 801 C 258 801 228 834 228 897 C 228 959 258 996 311 996 C 364 996 394 959 394 897 C 394 834 364 801 311 801 Z M 432 269 L 187 269 L 309 633 Z M 522 0 L 581 0 L 337 697 L 284 697 L 40 0 L 97 0 L 171 221 L 448 221 Z" unicode="Ǻ" />
<glyph horiz-adv-x="530" d="M 248 589 C 323 589 373 636 373 724 C 373 805 330 853 264 860 C 314 911 360 964 401 1021 L 320 1022 C 291 966 257 913 220 861 L 237 860 C 168 856 123 807 123 724 C 123 636 173 589 248 589 Z M 248 627 C 195 627 165 661 165 724 C 165 786 195 822 248 822 C 301 822 331 786 331 724 C 331 661 301 627 248 627 Z M 225 38 C 155 38 111 76 111 142 C 111 209 157 242 221 242 L 371 242 L 371 110 C 334 68 282 38 225 38 Z M 503 -1 L 503 49 C 454 33 425 55 425 108 L 425 368 C 425 472 355 532 254 532 C 164 532 104 492 71 416 L 117 391 C 145 457 183 484 249 484 C 327 484 371 440 371 359 L 371 288 L 218 288 C 121 288 57 231 57 137 C 57 43 127 -10 213 -10 C 279 -10 343 25 387 73 C 388 16 441 -15 503 -1 Z" unicode="ǻ" />
<glyph horiz-adv-x="831" d="M 479 773 L 523 772 C 573 823 619 877 661 934 L 579 935 C 550 879 516 825 479 773 Z M 329 647 L 420 647 L 420 277 L 194 277 Z M 420 229 L 420 0 L 762 0 L 762 50 L 476 50 L 476 352 L 723 352 L 723 401 L 476 401 L 476 647 L 762 647 L 762 696 L 295 696 L 37 0 L 96 0 L 178 229 Z" unicode="Ǽ" />
<glyph horiz-adv-x="826" d="M 338 600 L 383 599 C 433 649 479 703 520 760 L 439 761 C 410 705 376 651 338 600 Z M 576 484 C 650 484 708 430 708 304 L 708 300 L 426 300 C 434 427 487 484 576 484 Z M 225 38 C 155 38 111 76 111 142 C 111 209 157 242 221 242 L 371 242 L 371 110 C 334 68 282 38 225 38 Z M 586 -9 C 652 -9 716 19 754 73 L 716 108 C 684 63 641 41 586 41 C 483 41 428 110 425 253 L 764 253 L 764 298 C 764 450 681 532 576 532 C 503 532 446 502 410 441 C 385 499 328 532 254 532 C 164 532 104 492 71 416 L 117 391 C 145 457 183 484 249 484 C 327 484 371 439 371 359 L 371 288 L 218 288 C 121 288 57 231 57 137 C 57 43 127 -10 213 -10 C 288 -10 355 30 410 88 C 446 24 507 -9 586 -9 Z" unicode="ǽ" />
<glyph horiz-adv-x="649" d="M 258 773 L 303 772 C 353 823 398 877 440 934 L 359 935 C 329 879 296 825 258 773 Z M 120 356 C 120 575 202 655 326 655 C 354 655 379 651 402 643 L 197 86 C 149 132 120 217 120 356 Z M 326 41 C 292 41 262 47 235 60 L 441 622 C 497 580 530 497 530 356 C 530 120 450 41 326 41 Z M 326 -9 C 480 -9 586 95 586 356 C 586 522 537 623 459 671 L 500 784 L 453 784 L 419 690 C 391 700 360 705 327 705 C 173 705 64 602 64 356 C 64 189 108 87 179 34 L 134 -86 L 180 -87 L 217 12 C 250 -2 286 -9 326 -9 Z" unicode="Ǿ" />
<glyph horiz-adv-x="586" d="M 218 600 L 263 599 C 313 649 359 703 400 760 L 319 761 C 290 705 256 651 218 600 Z M 122 261 C 122 413 177 482 270 482 C 298 482 322 476 343 463 L 169 83 C 138 118 122 176 122 261 Z M 270 41 C 245 41 222 46 202 56 L 376 433 C 404 397 419 340 419 260 C 419 106 364 41 270 41 Z M 270 -9 C 393 -9 476 76 476 260 C 476 368 447 442 399 485 L 456 610 L 411 610 L 364 510 C 337 524 306 532 271 532 C 147 532 65 444 65 261 C 65 150 95 75 145 32 L 91 -87 L 137 -87 L 181 9 C 208 -3 238 -9 270 -9 Z" unicode="ǿ" />
<glyph horiz-adv-x="742" d="M 101 280 L 641 280 L 641 328 L 101 328 Z" unicode="−" />
<glyph horiz-adv-x="963" d="M 260 0 L 315 0 L 634 696 L 580 696 Z" unicode="⅞" />
<glyph horiz-adv-x="258" d="M -59 0 L -4 0 L 315 696 L 261 696 Z" unicode="∕" />
<glyph horiz-adv-x="597" d="M 306 -5 C 441 -5 533 70 533 182 C 533 289 466 346 310 379 C 173 410 135 447 135 523 C 135 608 197 650 287 650 C 378 650 435 606 475 546 L 516 577 C 472 652 396 700 289 700 C 163 700 80 628 80 520 C 80 414 144 362 286 329 C 430 296 479 260 479 178 C 479 91 410 44 306 44 C 201 44 136 87 95 161 L 52 129 C 104 41 191 -5 306 -5 Z M 215 -236 L 258 -236 C 294 -187 324 -137 353 -78 L 273 -78 C 258 -134 239 -184 215 -236 Z" unicode="Ș" />
<glyph horiz-adv-x="498" d="M 254 -9 C 356 -9 441 41 441 136 C 441 230 379 262 266 288 C 165 309 127 329 127 390 C 127 453 180 482 243 482 C 299 482 354 459 397 425 L 425 467 C 373 509 308 532 243 532 C 149 532 72 481 72 387 C 72 295 132 260 249 235 C 347 213 386 194 386 133 C 386 66 323 41 254 41 C 192 41 130 60 84 97 L 57 54 C 112 11 181 -9 254 -9 Z M 151 -236 L 194 -236 C 230 -187 260 -137 289 -78 L 209 -78 C 194 -134 175 -184 151 -236 Z" unicode="ș" />
<glyph horiz-adv-x="545" d="M 245 0 L 301 0 L 301 647 L 513 647 L 513 696 L 32 696 L 32 647 L 245 647 Z M 180 -236 L 223 -236 C 258 -187 289 -137 317 -78 L 238 -78 C 223 -134 203 -184 180 -236 Z" unicode="Ț" />
<glyph horiz-adv-x="405" d="M 275 -8 C 307 -8 339 -1 371 12 L 359 61 C 330 49 303 43 279 43 C 226 43 191 79 191 158 L 191 473 L 362 473 L 362 522 L 191 522 L 191 666 L 135 666 L 135 522 L 28 522 L 28 473 L 135 473 L 135 161 C 135 49 185 -8 275 -8 Z M 157 -236 L 199 -236 C 235 -187 265 -137 294 -78 L 214 -78 C 199 -134 180 -184 157 -236 Z" unicode="ț" />
<glyph horiz-adv-x="269" d="M 36 -181 C 110 -181 169 -136 169 -35 L 169 522 L 113 522 L 113 -37 C 113 -105 79 -130 32 -130 C 10 -130 -12 -123 -38 -113 L -51 -164 C -20 -174 7 -181 36 -181 Z" unicode="ȷ" />
<glyph horiz-adv-x="742" d="M 508 340 C 589 340 648 401 648 513 L 648 608 L 591 608 L 591 518 C 591 435 561 396 508 396 C 458 396 440 415 388 508 C 341 589 306 616 236 616 C 152 616 95 554 95 441 L 95 349 L 151 349 L 151 438 C 151 523 181 560 236 560 C 285 560 303 543 355 452 C 402 368 437 340 508 340 Z M 508 -7 C 588 -7 648 53 648 166 L 648 260 L 591 260 L 591 171 C 591 84 559 49 508 49 C 458 49 440 68 388 160 C 342 242 306 268 236 268 C 152 268 95 205 95 95 L 95 1 L 151 1 L 151 90 C 151 177 182 212 236 212 C 285 212 302 195 355 106 C 402 21 437 -7 508 -7 Z" unicode="≈" />
<glyph horiz-adv-x="742" d="M 650 202 L 650 250 L 370 250 L 426 461 L 650 461 L 650 509 L 439 509 L 489 696 L 441 696 L 391 509 L 91 509 L 91 461 L 378 461 L 322 250 L 91 250 L 91 202 L 309 202 L 255 0 L 304 0 L 358 202 Z" unicode="≠" />
<glyph horiz-adv-x="742" d="M 610 157 L 612 216 L 195 427 L 612 638 L 610 698 L 131 458 L 131 396 Z M 131 0 L 612 0 L 612 50 L 131 50 Z" unicode="≤" />
<glyph horiz-adv-x="742" d="M 132 157 L 612 396 L 612 458 L 132 698 L 131 638 L 548 427 L 131 216 Z M 612 0 L 612 50 L 131 50 L 131 0 Z" unicode="≥" />
<glyph horiz-adv-x="285" d="M 203 696 L 162 696 C 127 636 99 578 83 472 L 152 472 C 161 572 176 613 203 696 Z" unicode="ʻ" />
<glyph horiz-adv-x="528" d="M 121 613 C 172 645 220 681 262 720 C 307 680 355 644 405 613 L 431 640 C 379 681 330 724 285 770 L 240 770 C 195 725 147 681 96 640 Z" unicode="ˆ" />
<glyph horiz-adv-x="528" d="M 242 610 L 287 610 C 331 658 380 700 431 739 L 405 767 C 356 736 308 699 264 661 C 218 699 171 735 121 767 L 96 739 C 146 700 195 657 242 610 Z" unicode="ˇ" />
<glyph horiz-adv-x="528" d="M 103 659 L 424 659 L 424 704 L 103 704 Z" unicode="ˉ" />
<glyph horiz-adv-x="528" d="M 263 606 C 366 606 437 653 438 769 L 391 769 C 390 678 346 644 263 644 C 181 644 136 678 135 769 L 88 769 C 89 653 161 606 263 606 Z" unicode="˘" />
<glyph horiz-adv-x="0" d="M -1 631 C 23 631 41 644 41 671 C 41 699 24 712 -1 712 C -25 712 -43 699 -43 672 C -43 644 -25 631 -1 631 Z" unicode="˙" />
<glyph horiz-adv-x="528" d="M 263 589 C 338 589 388 636 388 724 C 388 812 338 861 263 861 C 188 861 138 812 138 724 C 138 636 188 589 263 589 Z M 263 627 C 210 627 180 661 180 724 C 180 786 210 822 263 822 C 316 822 347 786 347 724 C 347 661 316 627 263 627 Z" unicode="˚" />
<glyph horiz-adv-x="528" d="M 300 -185 C 324 -185 354 -181 374 -177 L 373 -133 C 356 -138 326 -142 307 -142 C 259 -142 229 -120 229 -83 C 229 -48 251 -14 297 13 L 280 29 C 232 9 186 -39 186 -97 C 186 -151 235 -185 300 -185 Z" unicode="˛" />
<glyph horiz-adv-x="528" d="M 332 614 C 396 614 431 674 431 759 L 431 772 L 383 772 L 383 762 C 383 695 365 661 336 661 C 312 661 296 691 277 720 C 258 750 238 780 195 780 C 131 780 96 720 96 635 L 96 622 L 144 622 L 144 632 C 143 699 162 734 190 734 C 215 734 233 704 251 676 C 270 645 292 614 332 614 Z" unicode="˜" />
<glyph horiz-adv-x="528" d="M 154 600 L 190 599 C 230 652 263 709 294 767 L 231 768 C 209 710 184 653 154 600 Z M 323 600 L 359 599 C 397 653 432 709 462 767 L 400 768 C 379 712 353 655 323 600 Z" unicode="˝" />
<glyph horiz-adv-x="0" d="M 21 599 L 61 600 C 24 650 -9 704 -40 761 L -117 760 C -75 703 -28 649 21 599 Z" unicode="̀" />
<glyph horiz-adv-x="0" d="M -75 600 L -30 599 C 19 649 65 703 107 760 L 25 761 C -4 705 -38 651 -75 600 Z" unicode="́" />
<glyph horiz-adv-x="0" d="M -142 613 C -91 645 -44 681 -1 720 C 44 680 91 644 142 613 L 168 640 C 116 681 67 724 21 770 L -23 770 C -68 725 -116 681 -168 640 Z" unicode="̂" />
<glyph horiz-adv-x="0" d="M 69 614 C 133 614 168 674 168 759 L 168 772 L 120 772 L 120 762 C 120 695 102 661 73 661 C 49 661 33 691 14 720 C -5 750 -25 780 -68 780 C -132 780 -168 720 -168 635 L -168 622 L -119 622 L -119 632 C -120 699 -102 734 -73 734 C -48 734 -30 704 -12 676 C 7 645 28 614 69 614 Z" unicode="̃" />
<glyph horiz-adv-x="0" d="M -161 659 L 161 659 L 161 704 L -161 704 Z" unicode="̄" />
<glyph horiz-adv-x="0" d="M 0 606 C 103 606 174 653 175 769 L 128 769 C 127 678 82 644 0 644 C -82 644 -127 678 -128 769 L -175 769 C -174 653 -103 606 0 606 Z" unicode="̆" />
<glyph horiz-adv-x="0" d="M 0 631 C 24 631 42 644 42 671 C 42 699 25 712 0 712 C -24 712 -42 699 -42 672 C -42 644 -24 631 0 631 Z" unicode="̇" />
<glyph horiz-adv-x="0" d="M 82 631 C 107 631 124 644 124 671 C 124 699 107 712 82 712 C 57 712 41 699 41 672 C 41 644 57 631 82 631 Z M -82 631 C -58 631 -40 644 -40 671 C -40 699 -57 712 -82 712 C -107 712 -124 699 -124 672 C -124 644 -107 631 -82 631 Z" unicode="̈" />
<glyph horiz-adv-x="0" d="M 0 589 C 75 589 125 636 125 724 C 125 812 75 861 0 861 C -75 861 -125 812 -125 724 C -125 636 -75 589 0 589 Z M 0 627 C -53 627 -83 661 -83 724 C -83 786 -53 822 0 822 C 53 822 83 786 83 724 C 83 661 53 627 0 627 Z" unicode="̊" />
<glyph horiz-adv-x="0" d="M -109 600 L -73 599 C -34 652 0 709 30 767 L -33 768 C -54 710 -79 653 -109 600 Z M 60 600 L 96 599 C 134 653 169 709 199 767 L 137 768 C 116 712 89 655 60 600 Z" unicode="̋" />
<glyph horiz-adv-x="0" d="M -21 610 L 23 610 C 68 658 117 700 168 739 L 142 767 C 92 736 45 699 1 661 C -45 699 -92 735 -142 767 L -168 739 C -117 700 -68 657 -21 610 Z" unicode="̌" />
<glyph horiz-adv-x="0" d="M -65 605 L 13 605 C 28 662 48 712 71 762 L 29 762 C -6 714 -38 664 -65 605 Z" unicode="̒" />
<glyph horiz-adv-x="0" d="M -76 -236 L -34 -236 C 2 -187 33 -137 61 -78 L -18 -78 C -34 -134 -53 -184 -76 -236 Z" unicode="̦" />
<glyph horiz-adv-x="0" d="M -1 -185 C 56 -185 110 -160 110 -105 C 110 -61 72 -34 19 -27 L 21 8 L -18 8 L -21 -55 C 40 -58 60 -74 60 -105 C 60 -134 37 -147 0 -147 C -42 -147 -64 -133 -73 -93 L -115 -100 C -104 -157 -60 -185 -1 -185 Z" unicode="̧" />
<glyph horiz-adv-x="0" d="M 37 -185 C 61 -185 90 -181 111 -177 L 110 -133 C 92 -138 63 -142 44 -142 C -4 -142 -35 -120 -35 -83 C -35 -48 -12 -14 34 13 L 17 29 C -32 9 -77 -39 -77 -97 C -77 -151 -28 -185 37 -185 Z" unicode="̨" />
<glyph horiz-adv-x="653" d="M 601 188 L 548 199 C 533 102 476 41 365 41 C 266 41 193 95 169 240 L 383 240 L 383 285 L 163 285 C 162 306 161 330 161 355 C 161 374 161 393 163 411 L 383 411 L 383 455 L 168 455 C 190 599 264 655 365 655 C 470 655 528 598 547 491 L 601 503 C 580 627 498 705 366 705 C 236 705 138 628 112 455 L 33 455 L 33 411 L 107 411 C 105 393 105 374 105 355 C 105 330 106 307 108 285 L 33 285 L 33 240 L 113 240 C 141 66 238 -9 365 -9 C 502 -9 584 72 601 188 Z" unicode="€" />
<glyph horiz-adv-x="477" d="M 239 275 C 280 275 308 299 308 347 C 308 393 280 418 239 418 C 197 418 169 393 169 347 C 169 299 197 275 239 275 Z" unicode="∙" />
<glyph horiz-adv-x="821" d="M 381 -175 L 445 -175 L 445 465 L 581 465 L 612 279 L 662 279 L 637 523 L 447 523 L 450 696 L 375 696 L 380 523 L 189 523 L 164 279 L 214 279 L 245 465 L 381 465 Z" unicode="†" />
<glyph horiz-adv-x="821" d="M 375 -175 L 450 -175 L 447 0 L 637 0 L 662 192 L 612 192 L 581 57 L 445 57 L 445 465 L 581 465 L 612 330 L 662 330 L 637 521 L 447 521 L 450 696 L 375 696 L 380 521 L 189 521 L 164 330 L 214 330 L 245 465 L 381 465 L 381 57 L 245 57 L 214 192 L 164 192 L 189 0 L 380 0 Z" unicode="‡" />
<glyph horiz-adv-x="605" d="M 303 236 C 364 236 408 270 408 348 C 408 422 366 457 303 457 C 241 457 198 422 198 349 C 198 270 241 236 303 236 Z" unicode="•" />
<glyph horiz-adv-x="904" d="M 150 -6 C 182 -6 203 15 203 49 C 203 80 183 102 150 102 C 119 102 99 80 99 49 C 99 15 119 -6 150 -6 Z M 451 -6 C 483 -6 504 15 504 49 C 504 80 484 102 451 102 C 420 102 399 80 399 49 C 399 15 420 -6 451 -6 Z M 753 -6 C 785 -6 806 15 806 49 C 806 80 786 102 753 102 C 722 102 701 80 701 49 C 701 15 722 -6 753 -6 Z" unicode="…" />
<glyph horiz-adv-x="590" d="M 338 450 L 338 488 L 369 507 L 369 550 L 318 562 L 318 588 L 423 640 L 472 651 L 470 677 L 423 669 L 296 607 L 169 669 L 121 677 L 120 651 L 169 641 L 271 589 L 271 562 L 222 550 L 222 507 L 253 488 L 253 450 L 86 473 L 18 473 L 18 445 L 86 445 L 248 424 L 207 365 L 86 365 L 50 264 L 22 214 L 46 202 L 73 252 L 106 338 L 196 338 L 181 191 L 120 191 L 108 2 L 83 -61 L 107 -76 L 136 -2 L 145 161 L 182 161 L 253 -28 L 338 -28 L 408 161 L 444 161 L 454 -2 L 483 -73 L 506 -61 L 482 2 L 471 191 L 410 191 L 393 338 L 484 338 L 517 255 L 545 202 L 568 214 L 541 264 L 503 365 L 383 365 L 343 424 L 503 445 L 572 445 L 572 473 L 503 473 Z" unicode="" />
<glyph horiz-adv-x="658" d="M 316 288 C 253 288 234 319 242 368 L 275 568 C 282 613 316 636 370 636 C 433 636 451 607 442 550 L 411 353 C 401 305 367 288 316 288 Z M 441 24 L 437 99 C 392 77 348 69 312 69 C 241 69 203 109 214 180 L 226 254 C 244 230 280 217 321 217 C 410 217 473 262 489 355 L 519 547 C 534 642 487 705 375 705 C 286 705 214 659 198 565 L 135 173 C 117 62 188 -6 303 -6 C 352 -6 398 6 441 24 Z" unicode="ℓ" />
<glyph horiz-adv-x="773" d="M 408 772 L 447 773 C 411 824 377 878 347 935 L 269 934 C 311 877 358 823 408 772 Z M 554 0 L 610 0 L 765 696 L 712 696 L 582 78 L 426 622 L 377 622 L 223 77 L 93 696 L 37 696 L 192 0 L 249 0 L 401 542 Z" unicode="Ẁ" />
<glyph horiz-adv-x="716" d="M 378 599 L 418 600 C 381 650 348 704 317 761 L 240 760 C 282 703 328 649 378 599 Z M 478 0 L 534 0 L 672 522 L 619 522 L 507 66 L 382 482 L 334 482 L 212 69 L 101 522 L 45 522 L 183 0 L 239 0 L 357 402 Z" unicode="ẁ" />
<glyph horiz-adv-x="773" d="M 311 773 L 356 772 C 405 823 451 877 493 934 L 412 935 C 382 879 349 825 311 773 Z M 554 0 L 610 0 L 765 696 L 712 696 L 582 78 L 426 622 L 377 622 L 223 77 L 93 696 L 37 696 L 192 0 L 249 0 L 401 542 Z" unicode="Ẃ" />
<glyph horiz-adv-x="716" d="M 282 600 L 326 599 C 376 649 422 703 463 760 L 382 761 C 353 705 319 651 282 600 Z M 478 0 L 534 0 L 672 522 L 619 522 L 507 66 L 382 482 L 334 482 L 212 69 L 101 522 L 45 522 L 183 0 L 239 0 L 357 402 Z" unicode="ẃ" />
<glyph horiz-adv-x="773" d="M 468 805 C 493 805 510 818 510 845 C 510 873 493 886 468 886 C 443 886 427 873 427 846 C 427 818 443 805 468 805 Z M 304 805 C 328 805 347 818 347 845 C 347 873 329 886 304 886 C 279 886 262 873 262 846 C 262 818 279 805 304 805 Z M 554 0 L 610 0 L 765 696 L 712 696 L 582 78 L 426 622 L 377 622 L 223 77 L 93 696 L 37 696 L 192 0 L 249 0 L 401 542 Z" unicode="Ẅ" />
<glyph horiz-adv-x="716" d="M 439 631 C 463 631 481 644 481 671 C 481 699 463 712 439 712 C 414 712 397 699 397 672 C 397 644 414 631 439 631 Z M 274 631 C 299 631 317 644 317 671 C 317 699 300 712 274 712 C 250 712 233 699 233 672 C 233 644 250 631 274 631 Z M 478 0 L 534 0 L 672 522 L 619 522 L 507 66 L 382 482 L 334 482 L 212 69 L 101 522 L 45 522 L 183 0 L 239 0 L 357 402 Z" unicode="ẅ" />
<glyph horiz-adv-x="1114" d="M 208 338 C 285 338 337 399 337 520 C 337 638 286 705 208 705 C 133 705 80 638 80 520 C 80 399 132 338 208 338 Z M 178 0 L 234 0 L 633 696 L 578 696 Z M 208 380 C 155 380 126 426 126 520 C 126 612 155 665 208 665 C 258 665 291 612 291 520 C 291 426 258 380 208 380 Z M 907 -9 C 983 -9 1036 52 1036 171 C 1036 291 984 358 907 358 C 831 358 778 291 778 170 C 778 52 830 -9 907 -9 Z M 603 -9 C 679 -9 731 52 731 171 C 731 291 680 358 603 358 C 526 358 474 291 474 170 C 474 52 525 -9 603 -9 Z M 907 33 C 854 33 824 78 824 170 C 824 264 854 317 907 317 C 956 317 989 264 989 171 C 989 78 956 33 907 33 Z M 603 33 C 550 33 520 78 520 170 C 520 264 550 317 603 317 C 652 317 685 264 685 171 C 685 78 652 33 603 33 Z" unicode="‰" />
<glyph horiz-adv-x="528" d="M 187 -236 L 230 -236 C 265 -187 296 -137 324 -78 L 245 -78 C 230 -134 210 -184 187 -236 Z" unicode="" />
<glyph horiz-adv-x="687" d="M 151 397 L 188 397 L 188 661 L 280 661 L 280 697 L 53 697 L 53 662 L 151 662 Z M 367 654 L 448 455 L 482 455 L 562 654 L 563 397 L 597 397 L 597 697 L 545 697 L 465 495 L 385 697 L 332 697 L 332 397 L 367 397 Z" unicode="™" />
<glyph horiz-adv-x="314" d="M 73 472 L 115 472 C 150 532 179 589 194 696 L 124 696 C 116 596 102 555 73 472 Z" unicode="′" />
<glyph horiz-adv-x="713" d="" unicode="Ω" />
<glyph horiz-adv-x="586" d="M 314 772 L 354 773 C 317 824 284 878 253 935 L 176 934 C 217 877 264 823 314 772 Z M 321 0 L 321 266 L 558 696 L 497 696 L 295 318 L 90 696 L 27 696 L 265 266 L 265 0 Z" unicode="Ỳ" />
<glyph horiz-adv-x="497" d="M 269 599 L 309 600 C 272 650 239 704 208 761 L 131 760 C 173 703 220 649 269 599 Z M 110 -180 C 178 -180 227 -143 259 -49 L 460 522 L 403 522 L 252 65 L 99 522 L 40 522 L 224 -6 L 218 -22 C 197 -88 173 -130 113 -130 C 96 -130 72 -127 53 -122 L 44 -172 C 66 -178 88 -180 110 -180 Z" unicode="ỳ" />
<glyph horiz-adv-x="0" d="" unicode="﻿" />
<glyph horiz-adv-x="497" d="M 245 472 L 287 472 C 325 539 349 574 366 696 L 296 696 C 285 580 276 562 245 472 Z M 77 472 L 118 472 C 157 539 180 574 198 696 L 127 696 C 117 580 109 562 77 472 Z" unicode="″" />
<glyph horiz-adv-x="445" d="M 345 96 L 345 157 L 141 305 L 345 453 L 345 514 L 100 335 L 100 274 Z" unicode="‹" />
<glyph horiz-adv-x="445" d="M 100 96 L 345 274 L 345 335 L 100 514 L 100 453 L 304 305 L 100 157 Z" unicode="›" />
</font>
</defs>
</svg>
